<?xml version="1.0" encoding="UTF-8" standalone="no"?><svg xmlns="http://www.w3.org/2000/svg" xmlns:xlink="http://www.w3.org/1999/xlink" contentScriptType="application/ecmascript" contentStyleType="text/css" height="723px" preserveAspectRatio="none" style="width:1514px;height:723px;" version="1.1" viewBox="0 0 1514 723" width="1514px" zoomAndPan="magnify"><defs/><g><text fill="#000000" font-family="sans-serif" font-size="18" lengthAdjust="spacingAndGlyphs" textLength="552" x="479.5" y="26.708">(3) Add Transaction — finances/views.add_transaction + signal</text><rect fill="#FFFFFF" height="470.125" style="stroke: #383838; stroke-width: 1.0;" width="10" x="313.5" y="148.3828"/><rect fill="#FFFFFF" height="29.1328" style="stroke: #383838; stroke-width: 1.0;" width="10" x="624.5" y="177.5156"/><rect fill="#FFFFFF" height="295.3281" style="stroke: #383838; stroke-width: 1.0;" width="10" x="720" y="235.7813"/><rect fill="#FFFFFF" height="29.1328" style="stroke: #383838; stroke-width: 1.0;" width="10" x="725" y="376.4453"/><rect fill="#FFFFFF" height="29.1328" style="stroke: #383838; stroke-width: 1.0;" width="10" x="822.5" y="458.8438"/><rect fill="#FFFFFF" height="29.1328" style="stroke: #383838; stroke-width: 1.0;" width="10" x="822.5" y="560.2422"/><rect fill="#FFFFFF" height="245.0625" style="stroke: #383838; stroke-width: 1.0;" width="10" x="1093.5" y="264.9141"/><rect fill="#FFFFFF" height="29.1328" style="stroke: #383838; stroke-width: 1.0;" width="10" x="1465.5" y="294.0469"/><rect fill="#FFFFFF" height="164.7969" style="stroke: #000000; stroke-width: 2.0;" width="531.5" x="667.5" y="338.1797"/><rect fill="#FFFFFF" height="75.3984" style="stroke: #000000; stroke-width: 2.0;" width="416.5" x="772.5" y="420.5781"/><line style="stroke: #383838; stroke-width: 1.0; stroke-dasharray: 5.0,5.0;" x1="30" x2="30" y1="117.25" y2="636.5078"/><line style="stroke: #383838; stroke-width: 1.0; stroke-dasharray: 5.0,5.0;" x1="318.5" x2="318.5" y1="117.25" y2="636.5078"/><line style="stroke: #383838; stroke-width: 1.0; stroke-dasharray: 5.0,5.0;" x1="629.5" x2="629.5" y1="117.25" y2="636.5078"/><line style="stroke: #383838; stroke-width: 1.0; stroke-dasharray: 5.0,5.0;" x1="724.5" x2="724.5" y1="117.25" y2="636.5078"/><line style="stroke: #383838; stroke-width: 1.0; stroke-dasharray: 5.0,5.0;" x1="827.5" x2="827.5" y1="117.25" y2="636.5078"/><line style="stroke: #383838; stroke-width: 1.0; stroke-dasharray: 5.0,5.0;" x1="1098" x2="1098" y1="117.25" y2="636.5078"/><line style="stroke: #383838; stroke-width: 1.0; stroke-dasharray: 5.0,5.0;" x1="1470" x2="1470" y1="117.25" y2="636.5078"/><text fill="#000000" font-family="sans-serif" font-size="14" lengthAdjust="spacingAndGlyphs" textLength="39" x="8" y="113.9482">Client</text><ellipse cx="30.5" cy="47.9531" fill="#F8F8F8" rx="8" ry="8" style="stroke: #383838; stroke-width: 2.0;"/><path d="M30.5,55.9531 L30.5,82.9531 M17.5,63.9531 L43.5,63.9531 M30.5,82.9531 L17.5,97.9531 M30.5,82.9531 L43.5,97.9531 " fill="none" style="stroke: #383838; stroke-width: 2.0;"/><text fill="#000000" font-family="sans-serif" font-size="14" lengthAdjust="spacingAndGlyphs" textLength="39" x="8" y="648.5029">Client</text><ellipse cx="30.5" cy="661.8047" fill="#F8F8F8" rx="8" ry="8" style="stroke: #383838; stroke-width: 2.0;"/><path d="M30.5,669.8047 L30.5,696.8047 M17.5,677.8047 L43.5,677.8047 M30.5,696.8047 L17.5,711.8047 M30.5,696.8047 L43.5,711.8047 " fill="none" style="stroke: #383838; stroke-width: 2.0;"/><rect fill="#F8F8F8" height="46.5938" style="stroke: #383838; stroke-width: 1.5;" width="124" x="256.5" y="69.6563"/><text fill="#000000" font-family="sans-serif" font-size="14" lengthAdjust="spacingAndGlyphs" textLength="110" x="263.5" y="89.6514">add_transaction</text><text fill="#000000" font-family="sans-serif" font-size="14" lengthAdjust="spacingAndGlyphs" textLength="40" x="298.5" y="105.9482">(view)</text><rect fill="#F8F8F8" height="46.5938" style="stroke: #383838; stroke-width: 1.5;" width="124" x="256.5" y="635.5078"/><text fill="#000000" font-family="sans-serif" font-size="14" lengthAdjust="spacingAndGlyphs" textLength="110" x="263.5" y="655.5029">add_transaction</text><text fill="#000000" font-family="sans-serif" font-size="14" lengthAdjust="spacingAndGlyphs" textLength="40" x="298.5" y="671.7998">(view)</text><rect fill="#F8F8F8" height="30.2969" style="stroke: #383838; stroke-width: 1.5;" width="76" x="591.5" y="85.9531"/><text fill="#000000" font-family="sans-serif" font-size="14" lengthAdjust="spacingAndGlyphs" textLength="62" x="598.5" y="105.9482">Category</text><rect fill="#F8F8F8" height="30.2969" style="stroke: #383838; stroke-width: 1.5;" width="76" x="591.5" y="635.5078"/><text fill="#000000" font-family="sans-serif" font-size="14" lengthAdjust="spacingAndGlyphs" textLength="62" x="598.5" y="655.5029">Category</text><rect fill="#F8F8F8" height="30.2969" style="stroke: #383838; stroke-width: 1.5;" width="95" x="677.5" y="85.9531"/><text fill="#000000" font-family="sans-serif" font-size="14" lengthAdjust="spacingAndGlyphs" textLength="81" x="684.5" y="105.9482">Transaction</text><rect fill="#F8F8F8" height="30.2969" style="stroke: #383838; stroke-width: 1.5;" width="95" x="677.5" y="635.5078"/><text fill="#000000" font-family="sans-serif" font-size="14" lengthAdjust="spacingAndGlyphs" textLength="81" x="684.5" y="655.5029">Transaction</text><rect fill="#F8F8F8" height="30.2969" style="stroke: #383838; stroke-width: 1.5;" width="90" x="782.5" y="85.9531"/><text fill="#000000" font-family="sans-serif" font-size="14" lengthAdjust="spacingAndGlyphs" textLength="76" x="789.5" y="105.9482">Notification</text><rect fill="#F8F8F8" height="30.2969" style="stroke: #383838; stroke-width: 1.5;" width="90" x="782.5" y="635.5078"/><text fill="#000000" font-family="sans-serif" font-size="14" lengthAdjust="spacingAndGlyphs" textLength="76" x="789.5" y="655.5029">Notification</text><rect fill="#F8F8F8" height="46.5938" style="stroke: #383838; stroke-width: 1.5;" width="161" x="1018" y="69.6563"/><text fill="#000000" font-family="sans-serif" font-size="14" lengthAdjust="spacingAndGlyphs" textLength="147" x="1025" y="89.6514">checkBudgetAmount</text><text fill="#000000" font-family="sans-serif" font-size="14" lengthAdjust="spacingAndGlyphs" textLength="80" x="1058.5" y="105.9482">(post_save)</text><rect fill="#F8F8F8" height="46.5938" style="stroke: #383838; stroke-width: 1.5;" width="161" x="1018" y="635.5078"/><text fill="#000000" font-family="sans-serif" font-size="14" lengthAdjust="spacingAndGlyphs" textLength="147" x="1025" y="655.5029">checkBudgetAmount</text><text fill="#000000" font-family="sans-serif" font-size="14" lengthAdjust="spacingAndGlyphs" textLength="80" x="1058.5" y="671.7998">(post_save)</text><rect fill="#F8F8F8" height="30.2969" style="stroke: #383838; stroke-width: 1.5;" width="65" x="1438" y="85.9531"/><text fill="#000000" font-family="sans-serif" font-size="14" lengthAdjust="spacingAndGlyphs" textLength="51" x="1445" y="105.9482">Budget</text><rect fill="#F8F8F8" height="30.2969" style="stroke: #383838; stroke-width: 1.5;" width="65" x="1438" y="635.5078"/><text fill="#000000" font-family="sans-serif" font-size="14" lengthAdjust="spacingAndGlyphs" textLength="51" x="1445" y="655.5029">Budget</text><rect fill="#FFFFFF" height="470.125" style="stroke: #383838; stroke-width: 1.0;" width="10" x="313.5" y="148.3828"/><rect fill="#FFFFFF" height="29.1328" style="stroke: #383838; stroke-width: 1.0;" width="10" x="624.5" y="177.5156"/><rect fill="#FFFFFF" height="295.3281" style="stroke: #383838; stroke-width: 1.0;" width="10" x="720" y="235.7813"/><rect fill="#FFFFFF" height="29.1328" style="stroke: #383838; stroke-width: 1.0;" width="10" x="725" y="376.4453"/><rect fill="#FFFFFF" height="29.1328" style="stroke: #383838; stroke-width: 1.0;" width="10" x="822.5" y="458.8438"/><rect fill="#FFFFFF" height="29.1328" style="stroke: #383838; stroke-width: 1.0;" width="10" x="822.5" y="560.2422"/><rect fill="#FFFFFF" height="245.0625" style="stroke: #383838; stroke-width: 1.0;" width="10" x="1093.5" y="264.9141"/><rect fill="#FFFFFF" height="29.1328" style="stroke: #383838; stroke-width: 1.0;" width="10" x="1465.5" y="294.0469"/><polygon fill="#383838" points="301.5,144.3828,311.5,148.3828,301.5,152.3828,305.5,148.3828" style="stroke: #383838; stroke-width: 1.0;"/><line style="stroke: #383838; stroke-width: 1.0;" x1="30.5" x2="307.5" y1="148.3828" y2="148.3828"/><text fill="#000000" font-family="sans-serif" font-size="13" lengthAdjust="spacingAndGlyphs" textLength="264" x="37.5" y="143.3169">POST (name, amount, type, category, …)</text><polygon fill="#383838" points="612.5,173.5156,622.5,177.5156,612.5,181.5156,616.5,177.5156" style="stroke: #383838; stroke-width: 1.0;"/><line style="stroke: #383838; stroke-width: 1.0;" x1="323.5" x2="618.5" y1="177.5156" y2="177.5156"/><text fill="#000000" font-family="sans-serif" font-size="13" lengthAdjust="spacingAndGlyphs" textLength="282" x="330.5" y="172.4497">objects.get_or_create(name, user=user, …)</text><polygon fill="#383838" points="334.5,202.6484,324.5,206.6484,334.5,210.6484,330.5,206.6484" style="stroke: #383838; stroke-width: 1.0;"/><line style="stroke: #383838; stroke-width: 1.0; stroke-dasharray: 2.0,2.0;" x1="328.5" x2="628.5" y1="206.6484" y2="206.6484"/><text fill="#000000" font-family="sans-serif" font-size="13" lengthAdjust="spacingAndGlyphs" textLength="82" x="340.5" y="201.5825">category_obj</text><polygon fill="#383838" points="708,231.7813,718,235.7813,708,239.7813,712,235.7813" style="stroke: #383838; stroke-width: 1.0;"/><line style="stroke: #383838; stroke-width: 1.0;" x1="323.5" x2="714" y1="235.7813" y2="235.7813"/><text fill="#000000" font-family="sans-serif" font-size="13" lengthAdjust="spacingAndGlyphs" textLength="353" x="330.5" y="230.7153">objects.create(user, category, name, amount, type, …)</text><polygon fill="#383838" points="1081.5,260.9141,1091.5,264.9141,1081.5,268.9141,1085.5,264.9141" style="stroke: #383838; stroke-width: 1.0;"/><line style="stroke: #383838; stroke-width: 1.0;" x1="730" x2="1087.5" y1="264.9141" y2="264.9141"/><text fill="#000000" font-family="sans-serif" font-size="13" lengthAdjust="spacingAndGlyphs" textLength="300" x="737" y="259.8481">post_save(sender=Transaction, created=True)</text><polygon fill="#383838" points="1453.5,290.0469,1463.5,294.0469,1453.5,298.0469,1457.5,294.0469" style="stroke: #383838; stroke-width: 1.0;"/><line style="stroke: #383838; stroke-width: 1.0;" x1="1103.5" x2="1459.5" y1="294.0469" y2="294.0469"/><text fill="#000000" font-family="sans-serif" font-size="13" lengthAdjust="spacingAndGlyphs" textLength="343" x="1110.5" y="288.981">objects.filter(user, category=instance.category).first()</text><polygon fill="#383838" points="1114.5,319.1797,1104.5,323.1797,1114.5,327.1797,1110.5,323.1797" style="stroke: #383838; stroke-width: 1.0;"/><line style="stroke: #383838; stroke-width: 1.0; stroke-dasharray: 2.0,2.0;" x1="1108.5" x2="1469.5" y1="323.1797" y2="323.1797"/><text fill="#000000" font-family="sans-serif" font-size="13" lengthAdjust="spacingAndGlyphs" textLength="91" x="1120.5" y="318.1138">budget | None</text><path d="M667.5,338.1797 L731.5,338.1797 L731.5,345.1797 L721.5,355.1797 L667.5,355.1797 L667.5,338.1797 " fill="#EEEEEE" style="stroke: #000000; stroke-width: 1.0;"/><rect fill="none" height="164.7969" style="stroke: #000000; stroke-width: 2.0;" width="531.5" x="667.5" y="338.1797"/><text fill="#000000" font-family="sans-serif" font-size="13" font-weight="bold" lengthAdjust="spacingAndGlyphs" textLength="19" x="682.5" y="351.2466">alt</text><text fill="#000000" font-family="sans-serif" font-size="11" font-weight="bold" lengthAdjust="spacingAndGlyphs" textLength="324" x="746.5" y="350.3901">[budget row exists and instance.type == expense]</text><polygon fill="#383838" points="746,372.4453,736,376.4453,746,380.4453,742,376.4453" style="stroke: #383838; stroke-width: 1.0;"/><line style="stroke: #383838; stroke-width: 1.0;" x1="740" x2="1092.5" y1="376.4453" y2="376.4453"/><text fill="#000000" font-family="sans-serif" font-size="13" lengthAdjust="spacingAndGlyphs" textLength="314" x="752" y="371.3794">objects.filter(...).aggregate(Sum) in budget dates</text><polygon fill="#383838" points="1081.5,401.5781,1091.5,405.5781,1081.5,409.5781,1085.5,405.5781" style="stroke: #383838; stroke-width: 1.0;"/><line style="stroke: #383838; stroke-width: 1.0; stroke-dasharray: 2.0,2.0;" x1="730" x2="1087.5" y1="405.5781" y2="405.5781"/><text fill="#000000" font-family="sans-serif" font-size="13" lengthAdjust="spacingAndGlyphs" textLength="72" x="737" y="400.5122">total_spent</text><path d="M772.5,420.5781 L836.5,420.5781 L836.5,427.5781 L826.5,437.5781 L772.5,437.5781 L772.5,420.5781 " fill="#EEEEEE" style="stroke: #000000; stroke-width: 1.0;"/><rect fill="none" height="75.3984" style="stroke: #000000; stroke-width: 2.0;" width="416.5" x="772.5" y="420.5781"/><text fill="#000000" font-family="sans-serif" font-size="13" font-weight="bold" lengthAdjust="spacingAndGlyphs" textLength="19" x="787.5" y="433.645">alt</text><text fill="#000000" font-family="sans-serif" font-size="11" font-weight="bold" lengthAdjust="spacingAndGlyphs" textLength="209" x="851.5" y="432.7886">[spending_pct ≥ alert_threshold]</text><polygon fill="#383838" points="843.5,454.8438,833.5,458.8438,843.5,462.8438,839.5,458.8438" style="stroke: #383838; stroke-width: 1.0;"/><line style="stroke: #383838; stroke-width: 1.0;" x1="837.5" x2="1092.5" y1="458.8438" y2="458.8438"/><text fill="#000000" font-family="sans-serif" font-size="13" lengthAdjust="spacingAndGlyphs" textLength="242" x="849.5" y="453.7778">objects.create(budget alert message)</text><polygon fill="#383838" points="1081.5,483.9766,1091.5,487.9766,1081.5,491.9766,1085.5,487.9766" style="stroke: #383838; stroke-width: 1.0;"/><line style="stroke: #383838; stroke-width: 1.0; stroke-dasharray: 2.0,2.0;" x1="827.5" x2="1087.5" y1="487.9766" y2="487.9766"/><text fill="#000000" font-family="sans-serif" font-size="13" lengthAdjust="spacingAndGlyphs" textLength="15" x="834.5" y="482.9106">ok</text><polygon fill="#383838" points="334.5,527.1094,324.5,531.1094,334.5,535.1094,330.5,531.1094" style="stroke: #383838; stroke-width: 1.0;"/><line style="stroke: #383838; stroke-width: 1.0; stroke-dasharray: 2.0,2.0;" x1="328.5" x2="724" y1="531.1094" y2="531.1094"/><text fill="#000000" font-family="sans-serif" font-size="13" lengthAdjust="spacingAndGlyphs" textLength="130" x="340.5" y="526.0435">transaction instance</text><polygon fill="#383838" points="810.5,556.2422,820.5,560.2422,810.5,564.2422,814.5,560.2422" style="stroke: #383838; stroke-width: 1.0;"/><line style="stroke: #383838; stroke-width: 1.0;" x1="323.5" x2="816.5" y1="560.2422" y2="560.2422"/><text fill="#000000" font-family="sans-serif" font-size="13" lengthAdjust="spacingAndGlyphs" textLength="356" x="330.5" y="555.1763">objects.create(user, message="Transaction added: …")</text><polygon fill="#383838" points="334.5,585.375,324.5,589.375,334.5,593.375,330.5,589.375" style="stroke: #383838; stroke-width: 1.0;"/><line style="stroke: #383838; stroke-width: 1.0; stroke-dasharray: 2.0,2.0;" x1="328.5" x2="826.5" y1="589.375" y2="589.375"/><text fill="#000000" font-family="sans-serif" font-size="13" lengthAdjust="spacingAndGlyphs" textLength="15" x="340.5" y="584.3091">ok</text><polygon fill="#383838" points="41.5,614.5078,31.5,618.5078,41.5,622.5078,37.5,618.5078" style="stroke: #383838; stroke-width: 1.0;"/><line style="stroke: #383838; stroke-width: 1.0; stroke-dasharray: 2.0,2.0;" x1="35.5" x2="317.5" y1="618.5078" y2="618.5078"/><text fill="#000000" font-family="sans-serif" font-size="13" lengthAdjust="spacingAndGlyphs" textLength="149" x="47.5" y="613.4419">JsonResponse / redirect</text><!--MD5=[1b2cae7ba584e23dc1cf56afe92b045a]
@startuml seq_03_add_transaction
title (3) Add Transaction — finances/views.add_transaction + signal
skinparam monochrome true
skinparam shadowing false

actor "Client" as C
participant "add_transaction\n(view)" as V
participant "Category" as Cat
participant "Transaction" as Tx
participant "Notification" as N
participant "checkBudgetAmount\n(post_save)" as Sig
participant "Budget" as B

C -> V : POST (name, amount, type, category, …)
activate V
V -> Cat : objects.get_or_create(name, user=user, …)
activate Cat
Cat - -> V : category_obj
deactivate Cat
V -> Tx : objects.create(user, category, name, amount, type, …)
activate Tx
Tx -> Sig : post_save(sender=Transaction, created=True)
activate Sig
Sig -> B : objects.filter(user, category=instance.category).first()
activate B
B - -> Sig : budget | None
deactivate B
alt budget row exists and instance.type == expense
  Sig -> Tx : objects.filter(...).aggregate(Sum) in budget dates
  activate Tx
  Tx - -> Sig : total_spent
  deactivate Tx
  alt spending_pct ≥ alert_threshold
    Sig -> N : objects.create(budget alert message)
    activate N
    N - -> Sig : ok
    deactivate N
  end
end
deactivate Sig
Tx - -> V : transaction instance
deactivate Tx
V -> N : objects.create(user, message="Transaction added: …")
activate N
N - -> V : ok
deactivate N

V - -> C : JsonResponse / redirect
deactivate V
@enduml

PlantUML version 1.2020.02(Sun Mar 01 10:22:07 UTC 2020)
(GPL source distribution)
Java Runtime: OpenJDK Runtime Environment
JVM: OpenJDK 64-Bit Server VM
Java Version: 17.0.18+8
Operating System: Linux
Default Encoding: UTF-8
Language: en
Country: null
--></g></svg>