<?xml version="1.0" encoding="UTF-8" standalone="no"?><svg xmlns="http://www.w3.org/2000/svg" xmlns:xlink="http://www.w3.org/1999/xlink" contentScriptType="application/ecmascript" contentStyleType="text/css" height="850px" preserveAspectRatio="none" style="width:1403px;height:850px;" version="1.1" viewBox="0 0 1403 850" width="1403px" zoomAndPan="magnify"><defs/><g><text fill="#000000" font-family="sans-serif" font-size="18" lengthAdjust="spacingAndGlyphs" textLength="448" x="473.25" y="26.708">(4) Create / Edit Budget — set_budget + Category</text><text fill="#000000" font-family="sans-serif" font-size="18" lengthAdjust="spacingAndGlyphs" textLength="430" x="482.25" y="47.6611">(code: finances/views.set_budget, add_category)</text><rect fill="#FFFFFF" height="175.9297" style="stroke: #383838; stroke-width: 1.0;" width="10" x="422.5" y="212.4688"/><rect fill="#FFFFFF" height="29.1328" style="stroke: #383838; stroke-width: 1.0;" width="10" x="628.5" y="241.6016"/><rect fill="#FFFFFF" height="29.1328" style="stroke: #383838; stroke-width: 1.0;" width="10" x="734.5" y="330.1328"/><rect fill="#FFFFFF" height="191.6016" style="stroke: #383838; stroke-width: 1.0;" width="10" x="1045.5" y="554.0625"/><rect fill="#FFFFFF" height="148.4688" style="stroke: #000000; stroke-width: 2.0;" width="796" x="585.5" y="569.0625"/><rect fill="#FFFFFF" height="73.0703" style="stroke: none; stroke-width: 1.0;" width="796" x="585.5" y="644.4609"/><line style="stroke: #383838; stroke-width: 1.0; stroke-dasharray: 5.0,5.0;" x1="67" x2="67" y1="138.2031" y2="763.6641"/><line style="stroke: #383838; stroke-width: 1.0; stroke-dasharray: 5.0,5.0;" x1="427" x2="427" y1="138.2031" y2="763.6641"/><line style="stroke: #383838; stroke-width: 1.0; stroke-dasharray: 5.0,5.0;" x1="633.5" x2="633.5" y1="138.2031" y2="763.6641"/><line style="stroke: #383838; stroke-width: 1.0; stroke-dasharray: 5.0,5.0;" x1="739" x2="739" y1="138.2031" y2="763.6641"/><line style="stroke: #383838; stroke-width: 1.0; stroke-dasharray: 5.0,5.0;" x1="884" x2="884" y1="138.2031" y2="763.6641"/><line style="stroke: #383838; stroke-width: 1.0; stroke-dasharray: 5.0,5.0;" x1="1050" x2="1050" y1="138.2031" y2="763.6641"/><line style="stroke: #383838; stroke-width: 1.0; stroke-dasharray: 5.0,5.0;" x1="1326.5" x2="1326.5" y1="138.2031" y2="763.6641"/><text fill="#000000" font-family="sans-serif" font-size="14" lengthAdjust="spacingAndGlyphs" textLength="39" x="45" y="134.9014">Client</text><ellipse cx="67.5" cy="68.9063" fill="#F8F8F8" rx="8" ry="8" style="stroke: #383838; stroke-width: 2.0;"/><path d="M67.5,76.9063 L67.5,103.9063 M54.5,84.9063 L80.5,84.9063 M67.5,103.9063 L54.5,118.9063 M67.5,103.9063 L80.5,118.9063 " fill="none" style="stroke: #383838; stroke-width: 2.0;"/><text fill="#000000" font-family="sans-serif" font-size="14" lengthAdjust="spacingAndGlyphs" textLength="39" x="45" y="775.6592">Client</text><ellipse cx="67.5" cy="788.9609" fill="#F8F8F8" rx="8" ry="8" style="stroke: #383838; stroke-width: 2.0;"/><path d="M67.5,796.9609 L67.5,823.9609 M54.5,804.9609 L80.5,804.9609 M67.5,823.9609 L54.5,838.9609 M67.5,823.9609 L80.5,838.9609 " fill="none" style="stroke: #383838; stroke-width: 2.0;"/><rect fill="#F8F8F8" height="46.5938" style="stroke: #383838; stroke-width: 1.5;" width="93" x="381" y="90.6094"/><text fill="#000000" font-family="sans-serif" font-size="14" lengthAdjust="spacingAndGlyphs" textLength="79" x="388" y="110.6045">set_budget</text><text fill="#000000" font-family="sans-serif" font-size="14" lengthAdjust="spacingAndGlyphs" textLength="40" x="407.5" y="126.9014">(view)</text><rect fill="#F8F8F8" height="46.5938" style="stroke: #383838; stroke-width: 1.5;" width="93" x="381" y="762.6641"/><text fill="#000000" font-family="sans-serif" font-size="14" lengthAdjust="spacingAndGlyphs" textLength="79" x="388" y="782.6592">set_budget</text><text fill="#000000" font-family="sans-serif" font-size="14" lengthAdjust="spacingAndGlyphs" textLength="40" x="407.5" y="798.9561">(view)</text><rect fill="#F8F8F8" height="30.2969" style="stroke: #383838; stroke-width: 1.5;" width="76" x="595.5" y="106.9063"/><text fill="#000000" font-family="sans-serif" font-size="14" lengthAdjust="spacingAndGlyphs" textLength="62" x="602.5" y="126.9014">Category</text><rect fill="#F8F8F8" height="30.2969" style="stroke: #383838; stroke-width: 1.5;" width="76" x="595.5" y="762.6641"/><text fill="#000000" font-family="sans-serif" font-size="14" lengthAdjust="spacingAndGlyphs" textLength="62" x="602.5" y="782.6592">Category</text><rect fill="#F8F8F8" height="30.2969" style="stroke: #383838; stroke-width: 1.5;" width="65" x="707" y="106.9063"/><text fill="#000000" font-family="sans-serif" font-size="14" lengthAdjust="spacingAndGlyphs" textLength="51" x="714" y="126.9014">Budget</text><rect fill="#F8F8F8" height="30.2969" style="stroke: #383838; stroke-width: 1.5;" width="65" x="707" y="762.6641"/><text fill="#000000" font-family="sans-serif" font-size="14" lengthAdjust="spacingAndGlyphs" textLength="51" x="714" y="782.6592">Budget</text><rect fill="#F8F8F8" height="46.5938" style="stroke: #383838; stroke-width: 1.5;" width="205" x="782" y="90.6094"/><text fill="#000000" font-family="sans-serif" font-size="14" lengthAdjust="spacingAndGlyphs" textLength="81" x="844" y="110.6045">Transaction</text><text fill="#000000" font-family="sans-serif" font-size="14" lengthAdjust="spacingAndGlyphs" textLength="191" x="789" y="126.9014">(read path on budget page)</text><rect fill="#F8F8F8" height="46.5938" style="stroke: #383838; stroke-width: 1.5;" width="205" x="782" y="762.6641"/><text fill="#000000" font-family="sans-serif" font-size="14" lengthAdjust="spacingAndGlyphs" textLength="81" x="844" y="782.6592">Transaction</text><text fill="#000000" font-family="sans-serif" font-size="14" lengthAdjust="spacingAndGlyphs" textLength="191" x="789" y="798.9561">(read path on budget page)</text><rect fill="#F8F8F8" height="46.5938" style="stroke: #383838; stroke-width: 1.5;" width="107" x="997" y="90.6094"/><text fill="#000000" font-family="sans-serif" font-size="14" lengthAdjust="spacingAndGlyphs" textLength="93" x="1004" y="110.6045">add_category</text><text fill="#000000" font-family="sans-serif" font-size="14" lengthAdjust="spacingAndGlyphs" textLength="40" x="1030.5" y="126.9014">(view)</text><rect fill="#F8F8F8" height="46.5938" style="stroke: #383838; stroke-width: 1.5;" width="107" x="997" y="762.6641"/><text fill="#000000" font-family="sans-serif" font-size="14" lengthAdjust="spacingAndGlyphs" textLength="93" x="1004" y="782.6592">add_category</text><text fill="#000000" font-family="sans-serif" font-size="14" lengthAdjust="spacingAndGlyphs" textLength="40" x="1030.5" y="798.9561">(view)</text><rect fill="#F8F8F8" height="30.2969" style="stroke: #383838; stroke-width: 1.5;" width="90" x="1281.5" y="106.9063"/><text fill="#000000" font-family="sans-serif" font-size="14" lengthAdjust="spacingAndGlyphs" textLength="76" x="1288.5" y="126.9014">Notification</text><rect fill="#F8F8F8" height="30.2969" style="stroke: #383838; stroke-width: 1.5;" width="90" x="1281.5" y="762.6641"/><text fill="#000000" font-family="sans-serif" font-size="14" lengthAdjust="spacingAndGlyphs" textLength="76" x="1288.5" y="782.6592">Notification</text><rect fill="#FFFFFF" height="175.9297" style="stroke: #383838; stroke-width: 1.0;" width="10" x="422.5" y="212.4688"/><rect fill="#FFFFFF" height="29.1328" style="stroke: #383838; stroke-width: 1.0;" width="10" x="628.5" y="241.6016"/><rect fill="#FFFFFF" height="29.1328" style="stroke: #383838; stroke-width: 1.0;" width="10" x="734.5" y="330.1328"/><rect fill="#FFFFFF" height="191.6016" style="stroke: #383838; stroke-width: 1.0;" width="10" x="1045.5" y="554.0625"/><rect fill="#EEEEEE" height="3" style="stroke: #EEEEEE; stroke-width: 1.0;" width="1388.5" x="3" y="168.7695"/><line style="stroke: #000000; stroke-width: 1.0;" x1="3" x2="1391.5" y1="168.7695" y2="168.7695"/><line style="stroke: #000000; stroke-width: 1.0;" x1="3" x2="1391.5" y1="171.7695" y2="171.7695"/><rect fill="#EEEEEE" height="23.1328" style="stroke: #000000; stroke-width: 2.0;" width="239" x="577.75" y="158.2031"/><text fill="#000000" font-family="sans-serif" font-size="13" font-weight="bold" lengthAdjust="spacingAndGlyphs" textLength="220" x="583.75" y="174.27">Set period budget row (JSON)</text><polygon fill="#383838" points="410.5,208.4688,420.5,212.4688,410.5,216.4688,414.5,212.4688" style="stroke: #383838; stroke-width: 1.0;"/><line style="stroke: #383838; stroke-width: 1.0;" x1="67.5" x2="416.5" y1="212.4688" y2="212.4688"/><text fill="#000000" font-family="sans-serif" font-size="13" lengthAdjust="spacingAndGlyphs" textLength="336" x="74.5" y="207.4028">POST { category_id, amount, start_date, end_date }</text><polygon fill="#383838" points="616.5,237.6016,626.5,241.6016,616.5,245.6016,620.5,241.6016" style="stroke: #383838; stroke-width: 1.0;"/><line style="stroke: #383838; stroke-width: 1.0;" x1="432.5" x2="622.5" y1="241.6016" y2="241.6016"/><text fill="#000000" font-family="sans-serif" font-size="13" lengthAdjust="spacingAndGlyphs" textLength="177" x="439.5" y="236.5356">objects.get(id=category_id)</text><polygon fill="#383838" points="443.5,266.7344,433.5,270.7344,443.5,274.7344,439.5,270.7344" style="stroke: #383838; stroke-width: 1.0;"/><line style="stroke: #383838; stroke-width: 1.0; stroke-dasharray: 2.0,2.0;" x1="437.5" x2="632.5" y1="270.7344" y2="270.7344"/><text fill="#000000" font-family="sans-serif" font-size="13" lengthAdjust="spacingAndGlyphs" textLength="82" x="449.5" y="265.6685">category_obj</text><polygon fill="#383838" points="722.5,326.1328,732.5,330.1328,722.5,334.1328,726.5,330.1328" style="stroke: #383838; stroke-width: 1.0;"/><line style="stroke: #383838; stroke-width: 1.0;" x1="432.5" x2="728.5" y1="330.1328" y2="330.1328"/><text fill="#000000" font-family="sans-serif" font-size="13" lengthAdjust="spacingAndGlyphs" textLength="168" x="439.5" y="294.8013">objects.update_or_create(</text><text fill="#000000" font-family="sans-serif" font-size="13" lengthAdjust="spacingAndGlyphs" textLength="96" x="447.5" y="309.9341">user, category,</text><text fill="#000000" font-family="sans-serif" font-size="13" lengthAdjust="spacingAndGlyphs" textLength="275" x="447.5" y="325.0669">defaults={amount, start_date, end_date})</text><polygon fill="#383838" points="443.5,355.2656,433.5,359.2656,443.5,363.2656,439.5,359.2656" style="stroke: #383838; stroke-width: 1.0;"/><line style="stroke: #383838; stroke-width: 1.0; stroke-dasharray: 2.0,2.0;" x1="437.5" x2="738.5" y1="359.2656" y2="359.2656"/><text fill="#000000" font-family="sans-serif" font-size="13" lengthAdjust="spacingAndGlyphs" textLength="169" x="449.5" y="354.1997">(budget, created|updated)</text><polygon fill="#383838" points="78.5,384.3984,68.5,388.3984,78.5,392.3984,74.5,388.3984" style="stroke: #383838; stroke-width: 1.0;"/><line style="stroke: #383838; stroke-width: 1.0; stroke-dasharray: 2.0,2.0;" x1="72.5" x2="426.5" y1="388.3984" y2="388.3984"/><text fill="#000000" font-family="sans-serif" font-size="13" lengthAdjust="spacingAndGlyphs" textLength="143" x="84.5" y="383.3325">JsonResponse success</text><rect fill="#EEEEEE" height="3" style="stroke: #EEEEEE; stroke-width: 1.0;" width="1388.5" x="3" y="416.9648"/><line style="stroke: #000000; stroke-width: 1.0;" x1="3" x2="1391.5" y1="416.9648" y2="416.9648"/><line style="stroke: #000000; stroke-width: 1.0;" x1="3" x2="1391.5" y1="419.9648" y2="419.9648"/><rect fill="#EEEEEE" height="23.1328" style="stroke: #000000; stroke-width: 2.0;" width="358" x="518.25" y="406.3984"/><text fill="#000000" font-family="sans-serif" font-size="13" font-weight="bold" lengthAdjust="spacingAndGlyphs" textLength="339" x="524.25" y="422.4653">Budget page spent totals (get_budget_page)</text><path d="M8,444.5313 L8,484.5313 L945,484.5313 L945,454.5313 L935,444.5313 L8,444.5313 " fill="#ECECEC" style="stroke: #383838; stroke-width: 1.0;"/><path d="M935,444.5313 L935,454.5313 L945,454.5313 L935,444.5313 " fill="#ECECEC" style="stroke: #383838; stroke-width: 1.0;"/><text fill="#000000" font-family="sans-serif" font-size="13" font-weight="bold" lengthAdjust="spacingAndGlyphs" textLength="131" x="129.5" y="461.5981">get_budget_page</text><text fill="#000000" font-family="sans-serif" font-size="13" lengthAdjust="spacingAndGlyphs" textLength="30" x="264.5" y="461.5981">uses</text><text fill="#000000" font-family="sans-serif" font-size="13" font-weight="bold" lengthAdjust="spacingAndGlyphs" textLength="166" x="298.5" y="461.5981">Category.objects.filter</text><text fill="#000000" font-family="sans-serif" font-size="13" lengthAdjust="spacingAndGlyphs" textLength="38" x="464.5" y="461.5981">(user)</text><text fill="#000000" font-family="sans-serif" font-size="13" lengthAdjust="spacingAndGlyphs" textLength="24" x="129.5" y="476.731">and</text><text fill="#000000" font-family="sans-serif" font-size="13" font-weight="bold" lengthAdjust="spacingAndGlyphs" textLength="184" x="157.5" y="476.731">Transaction.objects.filter</text><text fill="#000000" font-family="sans-serif" font-size="13" lengthAdjust="spacingAndGlyphs" textLength="473" x="341.5" y="476.731">(expense, category,\ncurrent month).aggregate — same classes as table.</text><rect fill="#EEEEEE" height="3" style="stroke: #EEEEEE; stroke-width: 1.0;" width="1388.5" x="3" y="510.3633"/><line style="stroke: #000000; stroke-width: 1.0;" x1="3" x2="1391.5" y1="510.3633" y2="510.3633"/><line style="stroke: #000000; stroke-width: 1.0;" x1="3" x2="1391.5" y1="513.3633" y2="513.3633"/><rect fill="#EEEEEE" height="23.1328" style="stroke: #000000; stroke-width: 2.0;" width="301" x="546.75" y="499.7969"/><text fill="#000000" font-family="sans-serif" font-size="13" font-weight="bold" lengthAdjust="spacingAndGlyphs" textLength="282" x="552.75" y="515.8638">Custom category (add_category view)</text><polygon fill="#383838" points="1033.5,550.0625,1043.5,554.0625,1033.5,558.0625,1037.5,554.0625" style="stroke: #383838; stroke-width: 1.0;"/><line style="stroke: #383838; stroke-width: 1.0;" x1="67.5" x2="1039.5" y1="554.0625" y2="554.0625"/><text fill="#000000" font-family="sans-serif" font-size="13" lengthAdjust="spacingAndGlyphs" textLength="220" x="74.5" y="548.9966">POST name, budget, [category_id]</text><path d="M585.5,569.0625 L649.5,569.0625 L649.5,576.0625 L639.5,586.0625 L585.5,586.0625 L585.5,569.0625 " fill="#EEEEEE" style="stroke: #000000; stroke-width: 1.0;"/><rect fill="none" height="148.4688" style="stroke: #000000; stroke-width: 2.0;" width="796" x="585.5" y="569.0625"/><text fill="#000000" font-family="sans-serif" font-size="13" font-weight="bold" lengthAdjust="spacingAndGlyphs" textLength="19" x="600.5" y="582.1294">alt</text><text fill="#000000" font-family="sans-serif" font-size="11" font-weight="bold" lengthAdjust="spacingAndGlyphs" textLength="110" x="664.5" y="581.2729">[update existing]</text><polygon fill="#383838" points="644.5,603.3281,634.5,607.3281,644.5,611.3281,640.5,607.3281" style="stroke: #383838; stroke-width: 1.0;"/><line style="stroke: #383838; stroke-width: 1.0;" x1="638.5" x2="1044.5" y1="607.3281" y2="607.3281"/><text fill="#000000" font-family="sans-serif" font-size="13" lengthAdjust="spacingAndGlyphs" textLength="250" x="650.5" y="602.2622">get(id=category_id, user=user); save()</text><polygon fill="#383838" points="1314.5,632.4609,1324.5,636.4609,1314.5,640.4609,1318.5,636.4609" style="stroke: #383838; stroke-width: 1.0;"/><line style="stroke: #383838; stroke-width: 1.0;" x1="1055.5" x2="1320.5" y1="636.4609" y2="636.4609"/><text fill="#000000" font-family="sans-serif" font-size="13" lengthAdjust="spacingAndGlyphs" textLength="247" x="1062.5" y="631.395">objects.create("Category updated: …")</text><line style="stroke: #000000; stroke-width: 1.0; stroke-dasharray: 2.0,2.0;" x1="585.5" x2="1381.5" y1="645.4609" y2="645.4609"/><text fill="#000000" font-family="sans-serif" font-size="11" font-weight="bold" lengthAdjust="spacingAndGlyphs" textLength="97" x="590.5" y="655.6714">[new category]</text><polygon fill="#383838" points="644.5,676.3984,634.5,680.3984,644.5,684.3984,640.5,680.3984" style="stroke: #383838; stroke-width: 1.0;"/><line style="stroke: #383838; stroke-width: 1.0;" x1="638.5" x2="1044.5" y1="680.3984" y2="680.3984"/><text fill="#000000" font-family="sans-serif" font-size="13" lengthAdjust="spacingAndGlyphs" textLength="353" x="650.5" y="675.3325">objects.get_or_create(user, name, defaults=…); save()</text><polygon fill="#383838" points="1314.5,705.5313,1324.5,709.5313,1314.5,713.5313,1318.5,709.5313" style="stroke: #383838; stroke-width: 1.0;"/><line style="stroke: #383838; stroke-width: 1.0;" x1="1055.5" x2="1320.5" y1="709.5313" y2="709.5313"/><text fill="#000000" font-family="sans-serif" font-size="13" lengthAdjust="spacingAndGlyphs" textLength="234" x="1062.5" y="704.4653">objects.create("Category added: …")</text><polygon fill="#383838" points="78.5,741.6641,68.5,745.6641,78.5,749.6641,74.5,745.6641" style="stroke: #383838; stroke-width: 1.0;"/><line style="stroke: #383838; stroke-width: 1.0; stroke-dasharray: 2.0,2.0;" x1="72.5" x2="1049.5" y1="745.6641" y2="745.6641"/><text fill="#000000" font-family="sans-serif" font-size="13" lengthAdjust="spacingAndGlyphs" textLength="198" x="84.5" y="740.5981">JsonResponse / redirect budget</text><!--MD5=[d65ca6af8aa0f327ab948b65573ad9cc]
@startuml seq_04_create_edit_budget
title (4) Create / Edit Budget — set_budget + Category\n(code: finances/views.set_budget, add_category)
skinparam monochrome true
skinparam shadowing false

actor "Client" as C
participant "set_budget\n(view)" as V
participant "Category" as Cat
participant "Budget" as B
participant "Transaction\n(read path on budget page)" as Tx

== Set period budget row (JSON) ==
C -> V : POST { category_id, amount, start_date, end_date }
activate V
V -> Cat : objects.get(id=category_id)
activate Cat
Cat - -> V : category_obj
deactivate Cat
V -> B : objects.update_or_create(\n  user, category,\n  defaults={amount, start_date, end_date})
activate B
B - -> V : (budget, created|updated)
deactivate B
V - -> C : JsonResponse success
deactivate V

== Budget page spent totals (get_budget_page) ==
note over C, Tx
  **get_budget_page** uses **Category.objects.filter**(user)
  and **Transaction.objects.filter**(expense, category,\ncurrent month).aggregate — same classes as table.
end note

== Custom category (add_category view) ==
participant "add_category\n(view)" as AC
participant "Notification" as N2
C -> AC : POST name, budget, [category_id]
activate AC
alt update existing
  AC -> Cat : get(id=category_id, user=user); save()
  AC -> N2 : objects.create("Category updated: …")
else new category
  AC -> Cat : objects.get_or_create(user, name, defaults=…); save()
  AC -> N2 : objects.create("Category added: …")
end
AC - -> C : JsonResponse / redirect budget
deactivate AC
@enduml

PlantUML version 1.2020.02(Sun Mar 01 10:22:07 UTC 2020)
(GPL source distribution)
Java Runtime: OpenJDK Runtime Environment
JVM: OpenJDK 64-Bit Server VM
Java Version: 17.0.18+8
Operating System: Linux
Default Encoding: UTF-8
Language: en
Country: null
--></g></svg>