<?xml version="1.0" encoding="UTF-8" standalone="no"?><svg xmlns="http://www.w3.org/2000/svg" xmlns:xlink="http://www.w3.org/1999/xlink" contentScriptType="application/ecmascript" contentStyleType="text/css" height="574px" preserveAspectRatio="none" style="width:808px;height:574px;" version="1.1" viewBox="0 0 808 574" width="808px" zoomAndPan="magnify"><defs/><g><text fill="#000000" font-family="sans-serif" font-size="18" lengthAdjust="spacingAndGlyphs" textLength="446" x="181.5" y="26.708">(1) Sign Up — accounts/views.signup_view + User</text><rect fill="#FFFFFF" height="329.1328" style="stroke: #383838; stroke-width: 1.0;" width="10" x="329.5" y="148.3828"/><rect fill="#FFFFFF" height="29.1328" style="stroke: #383838; stroke-width: 1.0;" width="10" x="744.5" y="177.5156"/><rect fill="#FFFFFF" height="29.1328" style="stroke: #383838; stroke-width: 1.0;" width="10" x="744.5" y="303.8516"/><rect fill="#FFFFFF" height="29.1328" style="stroke: #383838; stroke-width: 1.0;" width="10" x="744.5" y="404.25"/><rect fill="#FFFFFF" height="248.8672" style="stroke: #000000; stroke-width: 2.0;" width="783" x="13" y="221.6484"/><rect fill="#FFFFFF" height="202.6016" style="stroke: none; stroke-width: 1.0;" width="783" x="13" y="267.9141"/><line style="stroke: #383838; stroke-width: 1.0; stroke-dasharray: 5.0,5.0;" x1="45" x2="45" y1="117.25" y2="487.5156"/><line style="stroke: #383838; stroke-width: 1.0; stroke-dasharray: 5.0,5.0;" x1="334.5" x2="334.5" y1="117.25" y2="487.5156"/><line style="stroke: #383838; stroke-width: 1.0; stroke-dasharray: 5.0,5.0;" x1="749" x2="749" y1="117.25" y2="487.5156"/><text fill="#000000" font-family="sans-serif" font-size="14" lengthAdjust="spacingAndGlyphs" textLength="39" x="23" y="113.9482">Client</text><ellipse cx="45.5" cy="47.9531" fill="#F8F8F8" rx="8" ry="8" style="stroke: #383838; stroke-width: 2.0;"/><path d="M45.5,55.9531 L45.5,82.9531 M32.5,63.9531 L58.5,63.9531 M45.5,82.9531 L32.5,97.9531 M45.5,82.9531 L58.5,97.9531 " fill="none" style="stroke: #383838; stroke-width: 2.0;"/><text fill="#000000" font-family="sans-serif" font-size="14" lengthAdjust="spacingAndGlyphs" textLength="39" x="23" y="499.5107">Client</text><ellipse cx="45.5" cy="512.8125" fill="#F8F8F8" rx="8" ry="8" style="stroke: #383838; stroke-width: 2.0;"/><path d="M45.5,520.8125 L45.5,547.8125 M32.5,528.8125 L58.5,528.8125 M45.5,547.8125 L32.5,562.8125 M45.5,547.8125 L58.5,562.8125 " fill="none" style="stroke: #383838; stroke-width: 2.0;"/><rect fill="#F8F8F8" height="30.2969" style="stroke: #383838; stroke-width: 1.5;" width="98" x="285.5" y="85.9531"/><text fill="#000000" font-family="sans-serif" font-size="14" lengthAdjust="spacingAndGlyphs" textLength="84" x="292.5" y="105.9482">signup_view</text><rect fill="#F8F8F8" height="30.2969" style="stroke: #383838; stroke-width: 1.5;" width="98" x="285.5" y="486.5156"/><text fill="#000000" font-family="sans-serif" font-size="14" lengthAdjust="spacingAndGlyphs" textLength="84" x="292.5" y="506.5107">signup_view</text><rect fill="#F8F8F8" height="46.5938" style="stroke: #383838; stroke-width: 1.5;" width="73" x="713" y="69.6563"/><text fill="#000000" font-family="sans-serif" font-size="14" lengthAdjust="spacingAndGlyphs" textLength="32" x="733.5" y="89.6514">User</text><text fill="#000000" font-family="sans-serif" font-size="14" lengthAdjust="spacingAndGlyphs" textLength="59" x="720" y="105.9482">(Django)</text><rect fill="#F8F8F8" height="46.5938" style="stroke: #383838; stroke-width: 1.5;" width="73" x="713" y="486.5156"/><text fill="#000000" font-family="sans-serif" font-size="14" lengthAdjust="spacingAndGlyphs" textLength="32" x="733.5" y="506.5107">User</text><text fill="#000000" font-family="sans-serif" font-size="14" lengthAdjust="spacingAndGlyphs" textLength="59" x="720" y="522.8076">(Django)</text><rect fill="#FFFFFF" height="329.1328" style="stroke: #383838; stroke-width: 1.0;" width="10" x="329.5" y="148.3828"/><rect fill="#FFFFFF" height="29.1328" style="stroke: #383838; stroke-width: 1.0;" width="10" x="744.5" y="177.5156"/><rect fill="#FFFFFF" height="29.1328" style="stroke: #383838; stroke-width: 1.0;" width="10" x="744.5" y="303.8516"/><rect fill="#FFFFFF" height="29.1328" style="stroke: #383838; stroke-width: 1.0;" width="10" x="744.5" y="404.25"/><polygon fill="#383838" points="317.5,144.3828,327.5,148.3828,317.5,152.3828,321.5,148.3828" style="stroke: #383838; stroke-width: 1.0;"/><line style="stroke: #383838; stroke-width: 1.0;" x1="45.5" x2="323.5" y1="148.3828" y2="148.3828"/><text fill="#000000" font-family="sans-serif" font-size="13" lengthAdjust="spacingAndGlyphs" textLength="265" x="52.5" y="143.3169">POST (username/email, password, name)</text><polygon fill="#383838" points="732.5,173.5156,742.5,177.5156,732.5,181.5156,736.5,177.5156" style="stroke: #383838; stroke-width: 1.0;"/><line style="stroke: #383838; stroke-width: 1.0;" x1="339.5" x2="738.5" y1="177.5156" y2="177.5156"/><text fill="#000000" font-family="sans-serif" font-size="13" lengthAdjust="spacingAndGlyphs" textLength="250" x="346.5" y="172.4497">objects.filter(username=email).exists()</text><polygon fill="#383838" points="350.5,202.6484,340.5,206.6484,350.5,210.6484,346.5,206.6484" style="stroke: #383838; stroke-width: 1.0;"/><line style="stroke: #383838; stroke-width: 1.0; stroke-dasharray: 2.0,2.0;" x1="344.5" x2="748.5" y1="206.6484" y2="206.6484"/><text fill="#000000" font-family="sans-serif" font-size="13" lengthAdjust="spacingAndGlyphs" textLength="51" x="356.5" y="201.5825">boolean</text><path d="M13,221.6484 L77,221.6484 L77,228.6484 L67,238.6484 L13,238.6484 L13,221.6484 " fill="#EEEEEE" style="stroke: #000000; stroke-width: 1.0;"/><rect fill="none" height="248.8672" style="stroke: #000000; stroke-width: 2.0;" width="783" x="13" y="221.6484"/><text fill="#000000" font-family="sans-serif" font-size="13" font-weight="bold" lengthAdjust="spacingAndGlyphs" textLength="19" x="28" y="234.7153">alt</text><text fill="#000000" font-family="sans-serif" font-size="11" font-weight="bold" lengthAdjust="spacingAndGlyphs" textLength="167" x="92" y="233.8589">[email already registered]</text><polygon fill="#383838" points="56.5,255.9141,46.5,259.9141,56.5,263.9141,52.5,259.9141" style="stroke: #383838; stroke-width: 1.0;"/><line style="stroke: #383838; stroke-width: 1.0; stroke-dasharray: 2.0,2.0;" x1="50.5" x2="328.5" y1="259.9141" y2="259.9141"/><text fill="#000000" font-family="sans-serif" font-size="13" lengthAdjust="spacingAndGlyphs" textLength="163" x="62.5" y="254.8481">400 / redirect + message</text><line style="stroke: #000000; stroke-width: 1.0; stroke-dasharray: 2.0,2.0;" x1="13" x2="796" y1="268.9141" y2="268.9141"/><text fill="#000000" font-family="sans-serif" font-size="11" font-weight="bold" lengthAdjust="spacingAndGlyphs" textLength="69" x="18" y="279.1245">[new user]</text><polygon fill="#383838" points="732.5,299.8516,742.5,303.8516,732.5,307.8516,736.5,303.8516" style="stroke: #383838; stroke-width: 1.0;"/><line style="stroke: #383838; stroke-width: 1.0;" x1="339.5" x2="738.5" y1="303.8516" y2="303.8516"/><text fill="#000000" font-family="sans-serif" font-size="13" lengthAdjust="spacingAndGlyphs" textLength="386" x="346.5" y="298.7856">objects.create_user(username=email, password=password)</text><polygon fill="#383838" points="350.5,328.9844,340.5,332.9844,350.5,336.9844,346.5,332.9844" style="stroke: #383838; stroke-width: 1.0;"/><line style="stroke: #383838; stroke-width: 1.0; stroke-dasharray: 2.0,2.0;" x1="344.5" x2="748.5" y1="332.9844" y2="332.9844"/><text fill="#000000" font-family="sans-serif" font-size="13" lengthAdjust="spacingAndGlyphs" textLength="86" x="356.5" y="327.9185">user instance</text><line style="stroke: #383838; stroke-width: 1.0;" x1="339.5" x2="381.5" y1="362.1172" y2="362.1172"/><line style="stroke: #383838; stroke-width: 1.0;" x1="381.5" x2="381.5" y1="362.1172" y2="375.1172"/><line style="stroke: #383838; stroke-width: 1.0;" x1="340.5" x2="381.5" y1="375.1172" y2="375.1172"/><polygon fill="#383838" points="350.5,371.1172,340.5,375.1172,350.5,379.1172,346.5,375.1172" style="stroke: #383838; stroke-width: 1.0;"/><text fill="#000000" font-family="sans-serif" font-size="13" lengthAdjust="spacingAndGlyphs" textLength="207" x="346.5" y="357.0513">user.first_name, user.email = …</text><polygon fill="#383838" points="732.5,400.25,742.5,404.25,732.5,408.25,736.5,404.25" style="stroke: #383838; stroke-width: 1.0;"/><line style="stroke: #383838; stroke-width: 1.0;" x1="339.5" x2="738.5" y1="404.25" y2="404.25"/><text fill="#000000" font-family="sans-serif" font-size="13" lengthAdjust="spacingAndGlyphs" textLength="40" x="346.5" y="399.1841">save()</text><polygon fill="#383838" points="350.5,429.3828,340.5,433.3828,350.5,437.3828,346.5,433.3828" style="stroke: #383838; stroke-width: 1.0;"/><line style="stroke: #383838; stroke-width: 1.0; stroke-dasharray: 2.0,2.0;" x1="344.5" x2="748.5" y1="433.3828" y2="433.3828"/><text fill="#000000" font-family="sans-serif" font-size="13" lengthAdjust="spacingAndGlyphs" textLength="15" x="356.5" y="428.3169">ok</text><polygon fill="#383838" points="56.5,458.5156,46.5,462.5156,56.5,466.5156,52.5,462.5156" style="stroke: #383838; stroke-width: 1.0;"/><line style="stroke: #383838; stroke-width: 1.0; stroke-dasharray: 2.0,2.0;" x1="50.5" x2="328.5" y1="462.5156" y2="462.5156"/><text fill="#000000" font-family="sans-serif" font-size="13" lengthAdjust="spacingAndGlyphs" textLength="211" x="62.5" y="457.4497">201 JsonResponse / redirect login</text><!--MD5=[ad69cdada870671af45c6483ae288ccc]
@startuml seq_01_sign_up
title (1) Sign Up — accounts/views.signup_view + User
skinparam monochrome true
skinparam shadowing false

actor "Client" as C
participant "signup_view" as V
participant "User\n(Django)" as U

C -> V : POST (username/email, password, name)
activate V
V -> U : objects.filter(username=email).exists()
activate U
U - -> V : boolean
deactivate U
alt email already registered
  V - -> C : 400 / redirect + message
else new user
  V -> U : objects.create_user(username=email, password=password)
  activate U
  U - -> V : user instance
  deactivate U
  V -> V : user.first_name, user.email = …
  V -> U : save()
  activate U
  U - -> V : ok
  deactivate U
  V - -> C : 201 JsonResponse / redirect login
end
deactivate V
@enduml

PlantUML version 1.2020.02(Sun Mar 01 10:22:07 UTC 2020)
(GPL source distribution)
Java Runtime: OpenJDK Runtime Environment
JVM: OpenJDK 64-Bit Server VM
Java Version: 17.0.18+8
Operating System: Linux
Default Encoding: UTF-8
Language: en
Country: null
--></g></svg>