<?xml version="1.0" encoding="UTF-8" standalone="no"?><svg xmlns="http://www.w3.org/2000/svg" xmlns:xlink="http://www.w3.org/1999/xlink" contentScriptType="application/ecmascript" contentStyleType="text/css" height="598px" preserveAspectRatio="none" style="width:913px;height:598px;" version="1.1" viewBox="0 0 913 598" width="913px" zoomAndPan="magnify"><defs/><g><text fill="#000000" font-family="sans-serif" font-size="18" lengthAdjust="spacingAndGlyphs" textLength="650" x="130.25" y="26.708">(2) Login — accounts/views.login_view (no separate AuthService in code)</text><rect fill="#FFFFFF" height="287" style="stroke: #383838; stroke-width: 1.0;" width="10" x="318.5" y="148.3828"/><rect fill="#FFFFFF" height="87.3984" style="stroke: #383838; stroke-width: 1.0;" width="10" x="617.5" y="177.5156"/><rect fill="#FFFFFF" height="29.1328" style="stroke: #383838; stroke-width: 1.0;" width="10" x="719.5" y="362.1172"/><rect fill="#FFFFFF" height="29.1328" style="stroke: #383838; stroke-width: 1.0;" width="10" x="874.5" y="206.6484"/><rect fill="#FFFFFF" height="148.4688" style="stroke: #000000; stroke-width: 2.0;" width="758" x="13" y="279.9141"/><rect fill="#FFFFFF" height="102.2031" style="stroke: none; stroke-width: 1.0;" width="758" x="13" y="326.1797"/><line style="stroke: #383838; stroke-width: 1.0; stroke-dasharray: 5.0,5.0;" x1="45" x2="45" y1="117.25" y2="510.7813"/><line style="stroke: #383838; stroke-width: 1.0; stroke-dasharray: 5.0,5.0;" x1="323.5" x2="323.5" y1="117.25" y2="510.7813"/><line style="stroke: #383838; stroke-width: 1.0; stroke-dasharray: 5.0,5.0;" x1="622" x2="622" y1="117.25" y2="510.7813"/><line style="stroke: #383838; stroke-width: 1.0; stroke-dasharray: 5.0,5.0;" x1="724" x2="724" y1="117.25" y2="510.7813"/><line style="stroke: #383838; stroke-width: 1.0; stroke-dasharray: 5.0,5.0;" x1="879.5" x2="879.5" y1="117.25" y2="510.7813"/><text fill="#000000" font-family="sans-serif" font-size="14" lengthAdjust="spacingAndGlyphs" textLength="39" x="23" y="113.9482">Client</text><ellipse cx="45.5" cy="47.9531" fill="#F8F8F8" rx="8" ry="8" style="stroke: #383838; stroke-width: 2.0;"/><path d="M45.5,55.9531 L45.5,82.9531 M32.5,63.9531 L58.5,63.9531 M45.5,82.9531 L32.5,97.9531 M45.5,82.9531 L58.5,97.9531 " fill="none" style="stroke: #383838; stroke-width: 2.0;"/><text fill="#000000" font-family="sans-serif" font-size="14" lengthAdjust="spacingAndGlyphs" textLength="39" x="23" y="522.7764">Client</text><ellipse cx="45.5" cy="536.0781" fill="#F8F8F8" rx="8" ry="8" style="stroke: #383838; stroke-width: 2.0;"/><path d="M45.5,544.0781 L45.5,571.0781 M32.5,552.0781 L58.5,552.0781 M45.5,571.0781 L32.5,586.0781 M45.5,571.0781 L58.5,586.0781 " fill="none" style="stroke: #383838; stroke-width: 2.0;"/><rect fill="#F8F8F8" height="30.2969" style="stroke: #383838; stroke-width: 1.5;" width="84" x="281.5" y="85.9531"/><text fill="#000000" font-family="sans-serif" font-size="14" lengthAdjust="spacingAndGlyphs" textLength="70" x="288.5" y="105.9482">login_view</text><rect fill="#F8F8F8" height="30.2969" style="stroke: #383838; stroke-width: 1.5;" width="84" x="281.5" y="509.7813"/><text fill="#000000" font-family="sans-serif" font-size="14" lengthAdjust="spacingAndGlyphs" textLength="70" x="288.5" y="529.7764">login_view</text><rect fill="#F8F8F8" height="46.5938" style="stroke: #383838; stroke-width: 1.5;" width="111" x="567" y="69.6563"/><text fill="#000000" font-family="sans-serif" font-size="14" lengthAdjust="spacingAndGlyphs" textLength="97" x="574" y="89.6514">authenticate()</text><text fill="#000000" font-family="sans-serif" font-size="14" lengthAdjust="spacingAndGlyphs" textLength="59" x="593" y="105.9482">(Django)</text><rect fill="#F8F8F8" height="46.5938" style="stroke: #383838; stroke-width: 1.5;" width="111" x="567" y="509.7813"/><text fill="#000000" font-family="sans-serif" font-size="14" lengthAdjust="spacingAndGlyphs" textLength="97" x="574" y="529.7764">authenticate()</text><text fill="#000000" font-family="sans-serif" font-size="14" lengthAdjust="spacingAndGlyphs" textLength="59" x="593" y="546.0732">(Django)</text><rect fill="#F8F8F8" height="46.5938" style="stroke: #383838; stroke-width: 1.5;" width="73" x="688" y="69.6563"/><text fill="#000000" font-family="sans-serif" font-size="14" lengthAdjust="spacingAndGlyphs" textLength="43" x="703" y="89.6514">login()</text><text fill="#000000" font-family="sans-serif" font-size="14" lengthAdjust="spacingAndGlyphs" textLength="59" x="695" y="105.9482">(Django)</text><rect fill="#F8F8F8" height="46.5938" style="stroke: #383838; stroke-width: 1.5;" width="73" x="688" y="509.7813"/><text fill="#000000" font-family="sans-serif" font-size="14" lengthAdjust="spacingAndGlyphs" textLength="43" x="703" y="529.7764">login()</text><text fill="#000000" font-family="sans-serif" font-size="14" lengthAdjust="spacingAndGlyphs" textLength="59" x="695" y="546.0732">(Django)</text><rect fill="#F8F8F8" height="46.5938" style="stroke: #383838; stroke-width: 1.5;" width="46" x="856.5" y="69.6563"/><text fill="#000000" font-family="sans-serif" font-size="14" lengthAdjust="spacingAndGlyphs" textLength="32" x="863.5" y="89.6514">User</text><text fill="#000000" font-family="sans-serif" font-size="14" lengthAdjust="spacingAndGlyphs" textLength="31" x="864" y="105.9482">(DB)</text><rect fill="#F8F8F8" height="46.5938" style="stroke: #383838; stroke-width: 1.5;" width="46" x="856.5" y="509.7813"/><text fill="#000000" font-family="sans-serif" font-size="14" lengthAdjust="spacingAndGlyphs" textLength="32" x="863.5" y="529.7764">User</text><text fill="#000000" font-family="sans-serif" font-size="14" lengthAdjust="spacingAndGlyphs" textLength="31" x="864" y="546.0732">(DB)</text><rect fill="#FFFFFF" height="287" style="stroke: #383838; stroke-width: 1.0;" width="10" x="318.5" y="148.3828"/><rect fill="#FFFFFF" height="87.3984" style="stroke: #383838; stroke-width: 1.0;" width="10" x="617.5" y="177.5156"/><rect fill="#FFFFFF" height="29.1328" style="stroke: #383838; stroke-width: 1.0;" width="10" x="719.5" y="362.1172"/><rect fill="#FFFFFF" height="29.1328" style="stroke: #383838; stroke-width: 1.0;" width="10" x="874.5" y="206.6484"/><polygon fill="#383838" points="306.5,144.3828,316.5,148.3828,306.5,152.3828,310.5,148.3828" style="stroke: #383838; stroke-width: 1.0;"/><line style="stroke: #383838; stroke-width: 1.0;" x1="45.5" x2="312.5" y1="148.3828" y2="148.3828"/><text fill="#000000" font-family="sans-serif" font-size="13" lengthAdjust="spacingAndGlyphs" textLength="237" x="52.5" y="143.3169">POST (username or email, password)</text><polygon fill="#383838" points="605.5,173.5156,615.5,177.5156,605.5,181.5156,609.5,177.5156" style="stroke: #383838; stroke-width: 1.0;"/><line style="stroke: #383838; stroke-width: 1.0;" x1="328.5" x2="611.5" y1="177.5156" y2="177.5156"/><text fill="#000000" font-family="sans-serif" font-size="13" lengthAdjust="spacingAndGlyphs" textLength="270" x="335.5" y="172.4497">authenticate(username=email, password)</text><polygon fill="#383838" points="862.5,202.6484,872.5,206.6484,862.5,210.6484,866.5,206.6484" style="stroke: #383838; stroke-width: 1.0;"/><line style="stroke: #383838; stroke-width: 1.0;" x1="627.5" x2="868.5" y1="206.6484" y2="206.6484"/><text fill="#000000" font-family="sans-serif" font-size="13" lengthAdjust="spacingAndGlyphs" textLength="228" x="634.5" y="201.5825">resolve credentials (backend query)</text><polygon fill="#383838" points="638.5,231.7813,628.5,235.7813,638.5,239.7813,634.5,235.7813" style="stroke: #383838; stroke-width: 1.0;"/><line style="stroke: #383838; stroke-width: 1.0; stroke-dasharray: 2.0,2.0;" x1="632.5" x2="878.5" y1="235.7813" y2="235.7813"/><text fill="#000000" font-family="sans-serif" font-size="13" lengthAdjust="spacingAndGlyphs" textLength="85" x="644.5" y="230.7153">User or None</text><polygon fill="#383838" points="339.5,260.9141,329.5,264.9141,339.5,268.9141,335.5,264.9141" style="stroke: #383838; stroke-width: 1.0;"/><line style="stroke: #383838; stroke-width: 1.0; stroke-dasharray: 2.0,2.0;" x1="333.5" x2="621.5" y1="264.9141" y2="264.9141"/><text fill="#000000" font-family="sans-serif" font-size="13" lengthAdjust="spacingAndGlyphs" textLength="74" x="345.5" y="259.8481">user | None</text><path d="M13,279.9141 L77,279.9141 L77,286.9141 L67,296.9141 L13,296.9141 L13,279.9141 " fill="#EEEEEE" style="stroke: #000000; stroke-width: 1.0;"/><rect fill="none" height="148.4688" style="stroke: #000000; stroke-width: 2.0;" width="758" x="13" y="279.9141"/><text fill="#000000" font-family="sans-serif" font-size="13" font-weight="bold" lengthAdjust="spacingAndGlyphs" textLength="19" x="28" y="292.981">alt</text><text fill="#000000" font-family="sans-serif" font-size="11" font-weight="bold" lengthAdjust="spacingAndGlyphs" textLength="90" x="92" y="292.1245">[user is None]</text><polygon fill="#383838" points="56.5,314.1797,46.5,318.1797,56.5,322.1797,52.5,318.1797" style="stroke: #383838; stroke-width: 1.0;"/><line style="stroke: #383838; stroke-width: 1.0; stroke-dasharray: 2.0,2.0;" x1="50.5" x2="317.5" y1="318.1797" y2="318.1797"/><text fill="#000000" font-family="sans-serif" font-size="13" lengthAdjust="spacingAndGlyphs" textLength="203" x="62.5" y="313.1138">400 Invalid credentials / redirect</text><line style="stroke: #000000; stroke-width: 1.0; stroke-dasharray: 2.0,2.0;" x1="13" x2="771" y1="327.1797" y2="327.1797"/><text fill="#000000" font-family="sans-serif" font-size="11" font-weight="bold" lengthAdjust="spacingAndGlyphs" textLength="57" x="18" y="337.3901">[user ok]</text><polygon fill="#383838" points="707.5,358.1172,717.5,362.1172,707.5,366.1172,711.5,362.1172" style="stroke: #383838; stroke-width: 1.0;"/><line style="stroke: #383838; stroke-width: 1.0;" x1="328.5" x2="713.5" y1="362.1172" y2="362.1172"/><text fill="#000000" font-family="sans-serif" font-size="13" lengthAdjust="spacingAndGlyphs" textLength="125" x="335.5" y="357.0513">login(request, user)</text><polygon fill="#383838" points="339.5,387.25,329.5,391.25,339.5,395.25,335.5,391.25" style="stroke: #383838; stroke-width: 1.0;"/><line style="stroke: #383838; stroke-width: 1.0; stroke-dasharray: 2.0,2.0;" x1="333.5" x2="723.5" y1="391.25" y2="391.25"/><text fill="#000000" font-family="sans-serif" font-size="13" lengthAdjust="spacingAndGlyphs" textLength="125" x="345.5" y="386.1841">session established</text><polygon fill="#383838" points="56.5,416.3828,46.5,420.3828,56.5,424.3828,52.5,420.3828" style="stroke: #383838; stroke-width: 1.0;"/><line style="stroke: #383838; stroke-width: 1.0; stroke-dasharray: 2.0,2.0;" x1="50.5" x2="317.5" y1="420.3828" y2="420.3828"/><text fill="#000000" font-family="sans-serif" font-size="13" lengthAdjust="spacingAndGlyphs" textLength="249" x="62.5" y="415.3169">200 JsonResponse / redirect dashboard</text><path d="M328,440.3828 L328,495.3828 L758,495.3828 L758,450.3828 L748,440.3828 L328,440.3828 " fill="#ECECEC" style="stroke: #383838; stroke-width: 1.0;"/><path d="M748,440.3828 L748,450.3828 L758,450.3828 L748,440.3828 " fill="#ECECEC" style="stroke: #383838; stroke-width: 1.0;"/><text fill="#000000" font-family="sans-serif" font-size="13" lengthAdjust="spacingAndGlyphs" textLength="168" x="334" y="457.4497">Reference table may show</text><text fill="#000000" font-family="sans-serif" font-size="13" font-weight="bold" lengthAdjust="spacingAndGlyphs" textLength="87" x="506" y="457.4497">AuthService</text><text fill="#000000" font-family="sans-serif" font-size="13" lengthAdjust="spacingAndGlyphs" textLength="11" x="597" y="457.4497">+</text><text fill="#000000" font-family="sans-serif" font-size="13" font-weight="bold" lengthAdjust="spacingAndGlyphs" textLength="114" x="612" y="457.4497">Database.fetch</text><text fill="#000000" font-family="sans-serif" font-size="13" lengthAdjust="spacingAndGlyphs" textLength="13" x="730" y="457.4497">—</text><text fill="#000000" font-family="sans-serif" font-size="13" lengthAdjust="spacingAndGlyphs" textLength="148" x="334" y="472.5825">in Spendo this maps to</text><text fill="#000000" font-family="sans-serif" font-size="13" font-weight="bold" lengthAdjust="spacingAndGlyphs" textLength="105" x="486" y="472.5825">authenticate()</text><text fill="#000000" font-family="sans-serif" font-size="13" lengthAdjust="spacingAndGlyphs" textLength="107" x="595" y="472.5825">+ User backend,</text><text fill="#000000" font-family="sans-serif" font-size="13" lengthAdjust="spacingAndGlyphs" textLength="207" x="334" y="487.7153">not a separate application class.</text><!--MD5=[73340a5be546c4022628f12939e32722]
@startuml seq_02_login
title (2) Login — accounts/views.login_view (no separate AuthService in code)
skinparam monochrome true
skinparam shadowing false

actor "Client" as C
participant "login_view" as V
participant "authenticate()\n(Django)" as A
participant "login()\n(Django)" as L
participant "User\n(DB)" as U

C -> V : POST (username or email, password)
activate V
V -> A : authenticate(username=email, password)
activate A
A -> U : resolve credentials (backend query)
activate U
U - -> A : User or None
deactivate U
A - -> V : user | None
deactivate A
alt user is None
  V - -> C : 400 Invalid credentials / redirect
else user ok
  V -> L : login(request, user)
  activate L
  L - -> V : session established
  deactivate L
  V - -> C : 200 JsonResponse / redirect dashboard
end
deactivate V
note right of V
  Reference table may show **AuthService** + **Database.fetch** —
  in Spendo this maps to **authenticate()** + User backend,
  not a separate application class.
end note
@enduml

PlantUML version 1.2020.02(Sun Mar 01 10:22:07 UTC 2020)
(GPL source distribution)
Java Runtime: OpenJDK Runtime Environment
JVM: OpenJDK 64-Bit Server VM
Java Version: 17.0.18+8
Operating System: Linux
Default Encoding: UTF-8
Language: en
Country: null
--></g></svg>