<?xml version="1.0" encoding="UTF-8" standalone="no"?><svg xmlns="http://www.w3.org/2000/svg" xmlns:xlink="http://www.w3.org/1999/xlink" contentScriptType="application/ecmascript" contentStyleType="text/css" height="683px" preserveAspectRatio="none" style="width:864px;height:683px;" version="1.1" viewBox="0 0 864 683" width="864px" zoomAndPan="magnify"><defs/><g><text fill="#000000" font-family="sans-serif" font-size="18" lengthAdjust="spacingAndGlyphs" textLength="623" x="116" y="26.708">(6) Set and Track Goals — goals/views.add_goal + depositGoalAmount</text><rect fill="#FFFFFF" height="199.6016" style="stroke: #383838; stroke-width: 1.0;" width="10" x="328.5" y="191.5156"/><rect fill="#FFFFFF" height="122.5313" style="stroke: #383838; stroke-width: 1.0;" width="10" x="452" y="455.3828"/><rect fill="#FFFFFF" height="177.6016" style="stroke: #000000; stroke-width: 2.0;" width="546.5" x="285.5" y="206.5156"/><rect fill="#FFFFFF" height="73.0703" style="stroke: none; stroke-width: 1.0;" width="546.5" x="285.5" y="311.0469"/><line style="stroke: #383838; stroke-width: 1.0; stroke-dasharray: 5.0,5.0;" x1="30" x2="30" y1="117.25" y2="595.9141"/><line style="stroke: #383838; stroke-width: 1.0; stroke-dasharray: 5.0,5.0;" x1="333.5" x2="333.5" y1="117.25" y2="595.9141"/><line style="stroke: #383838; stroke-width: 1.0; stroke-dasharray: 5.0,5.0;" x1="456.5" x2="456.5" y1="117.25" y2="595.9141"/><line style="stroke: #383838; stroke-width: 1.0; stroke-dasharray: 5.0,5.0;" x1="699" x2="699" y1="117.25" y2="595.9141"/><line style="stroke: #383838; stroke-width: 1.0; stroke-dasharray: 5.0,5.0;" x1="777" x2="777" y1="117.25" y2="595.9141"/><text fill="#000000" font-family="sans-serif" font-size="14" lengthAdjust="spacingAndGlyphs" textLength="39" x="8" y="113.9482">Client</text><ellipse cx="30.5" cy="47.9531" fill="#F8F8F8" rx="8" ry="8" style="stroke: #383838; stroke-width: 2.0;"/><path d="M30.5,55.9531 L30.5,82.9531 M17.5,63.9531 L43.5,63.9531 M30.5,82.9531 L17.5,97.9531 M30.5,82.9531 L43.5,97.9531 " fill="none" style="stroke: #383838; stroke-width: 2.0;"/><text fill="#000000" font-family="sans-serif" font-size="14" lengthAdjust="spacingAndGlyphs" textLength="39" x="8" y="607.9092">Client</text><ellipse cx="30.5" cy="621.2109" fill="#F8F8F8" rx="8" ry="8" style="stroke: #383838; stroke-width: 2.0;"/><path d="M30.5,629.2109 L30.5,656.2109 M17.5,637.2109 L43.5,637.2109 M30.5,656.2109 L17.5,671.2109 M30.5,656.2109 L43.5,671.2109 " fill="none" style="stroke: #383838; stroke-width: 2.0;"/><rect fill="#F8F8F8" height="46.5938" style="stroke: #383838; stroke-width: 1.5;" width="76" x="295.5" y="69.6563"/><text fill="#000000" font-family="sans-serif" font-size="14" lengthAdjust="spacingAndGlyphs" textLength="62" x="302.5" y="89.6514">add_goal</text><text fill="#000000" font-family="sans-serif" font-size="14" lengthAdjust="spacingAndGlyphs" textLength="40" x="313.5" y="105.9482">(view)</text><rect fill="#F8F8F8" height="46.5938" style="stroke: #383838; stroke-width: 1.5;" width="76" x="295.5" y="594.9141"/><text fill="#000000" font-family="sans-serif" font-size="14" lengthAdjust="spacingAndGlyphs" textLength="62" x="302.5" y="614.9092">add_goal</text><text fill="#000000" font-family="sans-serif" font-size="14" lengthAdjust="spacingAndGlyphs" textLength="40" x="313.5" y="631.2061">(view)</text><rect fill="#F8F8F8" height="46.5938" style="stroke: #383838; stroke-width: 1.5;" width="151" x="381.5" y="69.6563"/><text fill="#000000" font-family="sans-serif" font-size="14" lengthAdjust="spacingAndGlyphs" textLength="137" x="388.5" y="89.6514">depositGoalAmount</text><text fill="#000000" font-family="sans-serif" font-size="14" lengthAdjust="spacingAndGlyphs" textLength="40" x="437" y="105.9482">(view)</text><rect fill="#F8F8F8" height="46.5938" style="stroke: #383838; stroke-width: 1.5;" width="151" x="381.5" y="594.9141"/><text fill="#000000" font-family="sans-serif" font-size="14" lengthAdjust="spacingAndGlyphs" textLength="137" x="388.5" y="614.9092">depositGoalAmount</text><text fill="#000000" font-family="sans-serif" font-size="14" lengthAdjust="spacingAndGlyphs" textLength="40" x="437" y="631.2061">(view)</text><rect fill="#F8F8F8" height="30.2969" style="stroke: #383838; stroke-width: 1.5;" width="45" x="677" y="85.9531"/><text fill="#000000" font-family="sans-serif" font-size="14" lengthAdjust="spacingAndGlyphs" textLength="31" x="684" y="105.9482">Goal</text><rect fill="#F8F8F8" height="30.2969" style="stroke: #383838; stroke-width: 1.5;" width="45" x="677" y="594.9141"/><text fill="#000000" font-family="sans-serif" font-size="14" lengthAdjust="spacingAndGlyphs" textLength="31" x="684" y="614.9092">Goal</text><rect fill="#F8F8F8" height="30.2969" style="stroke: #383838; stroke-width: 1.5;" width="90" x="732" y="85.9531"/><text fill="#000000" font-family="sans-serif" font-size="14" lengthAdjust="spacingAndGlyphs" textLength="76" x="739" y="105.9482">Notification</text><rect fill="#F8F8F8" height="30.2969" style="stroke: #383838; stroke-width: 1.5;" width="90" x="732" y="594.9141"/><text fill="#000000" font-family="sans-serif" font-size="14" lengthAdjust="spacingAndGlyphs" textLength="76" x="739" y="614.9092">Notification</text><rect fill="#FFFFFF" height="199.6016" style="stroke: #383838; stroke-width: 1.0;" width="10" x="328.5" y="191.5156"/><rect fill="#FFFFFF" height="122.5313" style="stroke: #383838; stroke-width: 1.0;" width="10" x="452" y="455.3828"/><rect fill="#EEEEEE" height="3" style="stroke: #EEEEEE; stroke-width: 1.0;" width="849" x="3" y="147.8164"/><line style="stroke: #000000; stroke-width: 1.0;" x1="3" x2="852" y1="147.8164" y2="147.8164"/><line style="stroke: #000000; stroke-width: 1.0;" x1="3" x2="852" y1="150.8164" y2="150.8164"/><rect fill="#EEEEEE" height="23.1328" style="stroke: #000000; stroke-width: 2.0;" width="311" x="272" y="137.25"/><text fill="#000000" font-family="sans-serif" font-size="13" font-weight="bold" lengthAdjust="spacingAndGlyphs" textLength="292" x="278" y="153.3169">Create or update goal (multipart POST)</text><polygon fill="#383838" points="316.5,187.5156,326.5,191.5156,316.5,195.5156,320.5,191.5156" style="stroke: #383838; stroke-width: 1.0;"/><line style="stroke: #383838; stroke-width: 1.0;" x1="30.5" x2="322.5" y1="191.5156" y2="191.5156"/><text fill="#000000" font-family="sans-serif" font-size="13" lengthAdjust="spacingAndGlyphs" textLength="279" x="37.5" y="186.4497">POST name, target, saved, image, [goal_id]</text><path d="M285.5,206.5156 L349.5,206.5156 L349.5,213.5156 L339.5,223.5156 L285.5,223.5156 L285.5,206.5156 " fill="#EEEEEE" style="stroke: #000000; stroke-width: 1.0;"/><rect fill="none" height="177.6016" style="stroke: #000000; stroke-width: 2.0;" width="546.5" x="285.5" y="206.5156"/><text fill="#000000" font-family="sans-serif" font-size="13" font-weight="bold" lengthAdjust="spacingAndGlyphs" textLength="19" x="300.5" y="219.5825">alt</text><text fill="#000000" font-family="sans-serif" font-size="11" font-weight="bold" lengthAdjust="spacingAndGlyphs" textLength="148" x="364.5" y="218.7261">[goal_id present (edit)]</text><polygon fill="#383838" points="687.5,240.7813,697.5,244.7813,687.5,248.7813,691.5,244.7813" style="stroke: #383838; stroke-width: 1.0;"/><line style="stroke: #383838; stroke-width: 1.0;" x1="338.5" x2="693.5" y1="244.7813" y2="244.7813"/><text fill="#000000" font-family="sans-serif" font-size="13" lengthAdjust="spacingAndGlyphs" textLength="237" x="345.5" y="239.7153">objects.get(id=goal_id, author=user)</text><polygon fill="#383838" points="687.5,269.9141,697.5,273.9141,687.5,277.9141,691.5,273.9141" style="stroke: #383838; stroke-width: 1.0;"/><line style="stroke: #383838; stroke-width: 1.0;" x1="338.5" x2="693.5" y1="273.9141" y2="273.9141"/><text fill="#000000" font-family="sans-serif" font-size="13" lengthAdjust="spacingAndGlyphs" textLength="160" x="345.5" y="268.8481">save() after field updates</text><polygon fill="#383838" points="765,299.0469,775,303.0469,765,307.0469,769,303.0469" style="stroke: #383838; stroke-width: 1.0;"/><line style="stroke: #383838; stroke-width: 1.0;" x1="338.5" x2="771" y1="303.0469" y2="303.0469"/><text fill="#000000" font-family="sans-serif" font-size="13" lengthAdjust="spacingAndGlyphs" textLength="218" x="345.5" y="297.981">objects.create("Goal updated: …")</text><line style="stroke: #000000; stroke-width: 1.0; stroke-dasharray: 2.0,2.0;" x1="285.5" x2="832" y1="312.0469" y2="312.0469"/><text fill="#000000" font-family="sans-serif" font-size="11" font-weight="bold" lengthAdjust="spacingAndGlyphs" textLength="69" x="290.5" y="322.2573">[new goal]</text><polygon fill="#383838" points="687.5,342.9844,697.5,346.9844,687.5,350.9844,691.5,346.9844" style="stroke: #383838; stroke-width: 1.0;"/><line style="stroke: #383838; stroke-width: 1.0;" x1="338.5" x2="693.5" y1="346.9844" y2="346.9844"/><text fill="#000000" font-family="sans-serif" font-size="13" lengthAdjust="spacingAndGlyphs" textLength="337" x="345.5" y="341.9185">objects.create(author, name, target, current, image)</text><polygon fill="#383838" points="765,372.1172,775,376.1172,765,380.1172,769,376.1172" style="stroke: #383838; stroke-width: 1.0;"/><line style="stroke: #383838; stroke-width: 1.0;" x1="338.5" x2="771" y1="376.1172" y2="376.1172"/><text fill="#000000" font-family="sans-serif" font-size="13" lengthAdjust="spacingAndGlyphs" textLength="214" x="345.5" y="371.0513">objects.create("Goal created: …")</text><rect fill="#EEEEEE" height="3" style="stroke: #EEEEEE; stroke-width: 1.0;" width="849" x="3" y="411.6836"/><line style="stroke: #000000; stroke-width: 1.0;" x1="3" x2="852" y1="411.6836" y2="411.6836"/><line style="stroke: #000000; stroke-width: 1.0;" x1="3" x2="852" y1="414.6836" y2="414.6836"/><rect fill="#EEEEEE" height="23.1328" style="stroke: #000000; stroke-width: 2.0;" width="178" x="338.5" y="401.1172"/><text fill="#000000" font-family="sans-serif" font-size="13" font-weight="bold" lengthAdjust="spacingAndGlyphs" textLength="159" x="344.5" y="417.1841">Deposit amount (API)</text><polygon fill="#383838" points="440,451.3828,450,455.3828,440,459.3828,444,455.3828" style="stroke: #383838; stroke-width: 1.0;"/><line style="stroke: #383838; stroke-width: 1.0;" x1="30.5" x2="446" y1="455.3828" y2="455.3828"/><text fill="#000000" font-family="sans-serif" font-size="13" lengthAdjust="spacingAndGlyphs" textLength="223" x="37.5" y="450.3169">POST/PUT JSON { goalId, amount }</text><polygon fill="#383838" points="687.5,480.5156,697.5,484.5156,687.5,488.5156,691.5,484.5156" style="stroke: #383838; stroke-width: 1.0;"/><line style="stroke: #383838; stroke-width: 1.0;" x1="462" x2="693.5" y1="484.5156" y2="484.5156"/><text fill="#000000" font-family="sans-serif" font-size="13" lengthAdjust="spacingAndGlyphs" textLength="181" x="469" y="479.4497">objects.get(id, author=user)</text><polygon fill="#383838" points="687.5,509.6484,697.5,513.6484,687.5,517.6484,691.5,513.6484" style="stroke: #383838; stroke-width: 1.0;"/><line style="stroke: #383838; stroke-width: 1.0;" x1="462" x2="693.5" y1="513.6484" y2="513.6484"/><text fill="#000000" font-family="sans-serif" font-size="13" lengthAdjust="spacingAndGlyphs" textLength="174" x="469" y="508.5825">current += amount; save()</text><path d="M467,526.6484 L467,551.6484 L847,551.6484 L847,536.6484 L837,526.6484 L467,526.6484 " fill="#ECECEC" style="stroke: #383838; stroke-width: 1.0;"/><path d="M837,526.6484 L837,536.6484 L847,536.6484 L837,526.6484 " fill="#ECECEC" style="stroke: #383838; stroke-width: 1.0;"/><text fill="#000000" font-family="sans-serif" font-size="13" font-weight="bold" lengthAdjust="spacingAndGlyphs" textLength="110" x="473" y="543.7153">No Notification</text><text fill="#000000" font-family="sans-serif" font-size="13" lengthAdjust="spacingAndGlyphs" textLength="165" x="587" y="543.7153">in code for deposit — only</text><text fill="#000000" font-family="sans-serif" font-size="13" font-weight="bold" lengthAdjust="spacingAndGlyphs" textLength="72" x="756" y="543.7153">Goal.save</text><text fill="#000000" font-family="sans-serif" font-size="13" lengthAdjust="spacingAndGlyphs" textLength="4" x="828" y="543.7153">.</text><polygon fill="#383838" points="41.5,573.9141,31.5,577.9141,41.5,581.9141,37.5,577.9141" style="stroke: #383838; stroke-width: 1.0;"/><line style="stroke: #383838; stroke-width: 1.0; stroke-dasharray: 2.0,2.0;" x1="35.5" x2="456" y1="577.9141" y2="577.9141"/><text fill="#000000" font-family="sans-serif" font-size="13" lengthAdjust="spacingAndGlyphs" textLength="249" x="47.5" y="572.8481">JsonResponse success + celebrate flag</text><!--MD5=[904c5e7f8fb5c03e16752627972f4b66]
@startuml seq_06_goals
title (6) Set and Track Goals — goals/views.add_goal + depositGoalAmount
skinparam monochrome true
skinparam shadowing false

actor "Client" as C
participant "add_goal\n(view)" as A
participant "depositGoalAmount\n(view)" as Dep
participant "Goal" as G
participant "Notification" as N

== Create or update goal (multipart POST) ==
C -> A : POST name, target, saved, image, [goal_id]
activate A
alt goal_id present (edit)
  A -> G : objects.get(id=goal_id, author=user)
  A -> G : save() after field updates
  A -> N : objects.create("Goal updated: …")
else new goal
  A -> G : objects.create(author, name, target, current, image)
  A -> N : objects.create("Goal created: …")
end
deactivate A

== Deposit amount (API) ==
C -> Dep : POST/PUT JSON { goalId, amount }
activate Dep
Dep -> G : objects.get(id, author=user)
Dep -> G : current += amount; save()
note right of Dep
  **No Notification** in code for deposit — only **Goal.save**.
end note
Dep - -> C : JsonResponse success + celebrate flag
deactivate Dep
@enduml

PlantUML version 1.2020.02(Sun Mar 01 10:22:07 UTC 2020)
(GPL source distribution)
Java Runtime: OpenJDK Runtime Environment
JVM: OpenJDK 64-Bit Server VM
Java Version: 17.0.18+8
Operating System: Linux
Default Encoding: UTF-8
Language: en
Country: null
--></g></svg>