<?xml version="1.0" encoding="UTF-8" standalone="no"?><svg xmlns="http://www.w3.org/2000/svg" xmlns:xlink="http://www.w3.org/1999/xlink" contentScriptType="application/ecmascript" contentStyleType="text/css" height="873px" preserveAspectRatio="none" style="width:2428px;height:873px;" version="1.1" viewBox="0 0 2428 873" width="2428px" zoomAndPan="magnify"><defs/><g><text fill="#000000" font-family="sans-serif" font-size="18" lengthAdjust="spacingAndGlyphs" textLength="629" x="895" y="26.708">(5) Budget Over-Limit / Threshold Alerts — two mechanisms in Spendo</text><rect fill="#FFFFFF" height="174.7969" style="stroke: #383838; stroke-width: 1.0;" width="10" x="1042.5" y="191.5156"/><rect fill="#FFFFFF" height="145.6641" style="stroke: #383838; stroke-width: 1.0;" width="10" x="1184.5" y="220.6484"/><rect fill="#FFFFFF" height="87.3984" style="stroke: #383838; stroke-width: 1.0;" width="10" x="1484.5" y="249.7813"/><rect fill="#FFFFFF" height="30" style="stroke: #383838; stroke-width: 1.0;" width="10" x="1819" y="687.7734"/><rect fill="#FFFFFF" height="318.8945" style="stroke: #383838; stroke-width: 1.0;" width="10" x="2077" y="438.5781"/><rect fill="#FFFFFF" height="46.2656" style="stroke: #000000; stroke-width: 2.0;" width="1016.5" x="1132" y="540.9766"/><line style="stroke: #383838; stroke-width: 1.0; stroke-dasharray: 5.0,5.0;" x1="814" x2="814" y1="117.25" y2="786.0391"/><line style="stroke: #383838; stroke-width: 1.0; stroke-dasharray: 5.0,5.0;" x1="1047.5" x2="1047.5" y1="117.25" y2="786.0391"/><line style="stroke: #383838; stroke-width: 1.0; stroke-dasharray: 5.0,5.0;" x1="1189" x2="1189" y1="117.25" y2="786.0391"/><line style="stroke: #383838; stroke-width: 1.0; stroke-dasharray: 5.0,5.0;" x1="1489" x2="1489" y1="117.25" y2="786.0391"/><line style="stroke: #383838; stroke-width: 1.0; stroke-dasharray: 5.0,5.0;" x1="1736" x2="1736" y1="117.25" y2="786.0391"/><line style="stroke: #383838; stroke-width: 1.0; stroke-dasharray: 5.0,5.0;" x1="1824" x2="1824" y1="117.25" y2="786.0391"/><line style="stroke: #383838; stroke-width: 1.0; stroke-dasharray: 5.0,5.0;" x1="2081.5" x2="2081.5" y1="117.25" y2="786.0391"/><line style="stroke: #383838; stroke-width: 1.0; stroke-dasharray: 5.0,5.0;" x1="2373" x2="2373" y1="117.25" y2="786.0391"/><text fill="#000000" font-family="sans-serif" font-size="14" lengthAdjust="spacingAndGlyphs" textLength="39" x="792" y="113.9482">Client</text><ellipse cx="814.5" cy="47.9531" fill="#F8F8F8" rx="8" ry="8" style="stroke: #383838; stroke-width: 2.0;"/><path d="M814.5,55.9531 L814.5,82.9531 M801.5,63.9531 L827.5,63.9531 M814.5,82.9531 L801.5,97.9531 M814.5,82.9531 L827.5,97.9531 " fill="none" style="stroke: #383838; stroke-width: 2.0;"/><text fill="#000000" font-family="sans-serif" font-size="14" lengthAdjust="spacingAndGlyphs" textLength="39" x="792" y="798.0342">Client</text><ellipse cx="814.5" cy="811.3359" fill="#F8F8F8" rx="8" ry="8" style="stroke: #383838; stroke-width: 2.0;"/><path d="M814.5,819.3359 L814.5,846.3359 M801.5,827.3359 L827.5,827.3359 M814.5,846.3359 L801.5,861.3359 M814.5,846.3359 L827.5,861.3359 " fill="none" style="stroke: #383838; stroke-width: 2.0;"/><rect fill="#F8F8F8" height="46.5938" style="stroke: #383838; stroke-width: 1.5;" width="124" x="985.5" y="69.6563"/><text fill="#000000" font-family="sans-serif" font-size="14" lengthAdjust="spacingAndGlyphs" textLength="110" x="992.5" y="89.6514">add_transaction</text><text fill="#000000" font-family="sans-serif" font-size="14" lengthAdjust="spacingAndGlyphs" textLength="108" x="993.5" y="105.9482">(or any Tx save)</text><rect fill="#F8F8F8" height="46.5938" style="stroke: #383838; stroke-width: 1.5;" width="124" x="985.5" y="785.0391"/><text fill="#000000" font-family="sans-serif" font-size="14" lengthAdjust="spacingAndGlyphs" textLength="110" x="992.5" y="805.0342">add_transaction</text><text fill="#000000" font-family="sans-serif" font-size="14" lengthAdjust="spacingAndGlyphs" textLength="108" x="993.5" y="821.3311">(or any Tx save)</text><rect fill="#F8F8F8" height="30.2969" style="stroke: #383838; stroke-width: 1.5;" width="95" x="1142" y="85.9531"/><text fill="#000000" font-family="sans-serif" font-size="14" lengthAdjust="spacingAndGlyphs" textLength="81" x="1149" y="105.9482">Transaction</text><rect fill="#F8F8F8" height="30.2969" style="stroke: #383838; stroke-width: 1.5;" width="95" x="1142" y="785.0391"/><text fill="#000000" font-family="sans-serif" font-size="14" lengthAdjust="spacingAndGlyphs" textLength="81" x="1149" y="805.0342">Transaction</text><rect fill="#F8F8F8" height="46.5938" style="stroke: #383838; stroke-width: 1.5;" width="161" x="1409" y="69.6563"/><text fill="#000000" font-family="sans-serif" font-size="14" lengthAdjust="spacingAndGlyphs" textLength="147" x="1416" y="89.6514">checkBudgetAmount</text><text fill="#000000" font-family="sans-serif" font-size="14" lengthAdjust="spacingAndGlyphs" textLength="50" x="1464.5" y="105.9482">(signal)</text><rect fill="#F8F8F8" height="46.5938" style="stroke: #383838; stroke-width: 1.5;" width="161" x="1409" y="785.0391"/><text fill="#000000" font-family="sans-serif" font-size="14" lengthAdjust="spacingAndGlyphs" textLength="147" x="1416" y="805.0342">checkBudgetAmount</text><text fill="#000000" font-family="sans-serif" font-size="14" lengthAdjust="spacingAndGlyphs" textLength="50" x="1464.5" y="821.3311">(signal)</text><rect fill="#F8F8F8" height="30.2969" style="stroke: #383838; stroke-width: 1.5;" width="65" x="1704" y="85.9531"/><text fill="#000000" font-family="sans-serif" font-size="14" lengthAdjust="spacingAndGlyphs" textLength="51" x="1711" y="105.9482">Budget</text><rect fill="#F8F8F8" height="30.2969" style="stroke: #383838; stroke-width: 1.5;" width="65" x="1704" y="785.0391"/><text fill="#000000" font-family="sans-serif" font-size="14" lengthAdjust="spacingAndGlyphs" textLength="51" x="1711" y="805.0342">Budget</text><rect fill="#F8F8F8" height="30.2969" style="stroke: #383838; stroke-width: 1.5;" width="90" x="1779" y="85.9531"/><text fill="#000000" font-family="sans-serif" font-size="14" lengthAdjust="spacingAndGlyphs" textLength="76" x="1786" y="105.9482">Notification</text><rect fill="#F8F8F8" height="30.2969" style="stroke: #383838; stroke-width: 1.5;" width="90" x="1779" y="785.0391"/><text fill="#000000" font-family="sans-serif" font-size="14" lengthAdjust="spacingAndGlyphs" textLength="76" x="1786" y="805.0342">Notification</text><rect fill="#F8F8F8" height="30.2969" style="stroke: #383838; stroke-width: 1.5;" width="113" x="2025.5" y="85.9531"/><text fill="#000000" font-family="sans-serif" font-size="14" lengthAdjust="spacingAndGlyphs" textLength="99" x="2032.5" y="105.9482">getDashboard</text><rect fill="#F8F8F8" height="30.2969" style="stroke: #383838; stroke-width: 1.5;" width="113" x="2025.5" y="785.0391"/><text fill="#000000" font-family="sans-serif" font-size="14" lengthAdjust="spacingAndGlyphs" textLength="99" x="2032.5" y="805.0342">getDashboard</text><rect fill="#F8F8F8" height="30.2969" style="stroke: #383838; stroke-width: 1.5;" width="76" x="2335" y="85.9531"/><text fill="#000000" font-family="sans-serif" font-size="14" lengthAdjust="spacingAndGlyphs" textLength="62" x="2342" y="105.9482">Category</text><rect fill="#F8F8F8" height="30.2969" style="stroke: #383838; stroke-width: 1.5;" width="76" x="2335" y="785.0391"/><text fill="#000000" font-family="sans-serif" font-size="14" lengthAdjust="spacingAndGlyphs" textLength="62" x="2342" y="805.0342">Category</text><rect fill="#FFFFFF" height="174.7969" style="stroke: #383838; stroke-width: 1.0;" width="10" x="1042.5" y="191.5156"/><rect fill="#FFFFFF" height="145.6641" style="stroke: #383838; stroke-width: 1.0;" width="10" x="1184.5" y="220.6484"/><rect fill="#FFFFFF" height="87.3984" style="stroke: #383838; stroke-width: 1.0;" width="10" x="1484.5" y="249.7813"/><rect fill="#FFFFFF" height="30" style="stroke: #383838; stroke-width: 1.0;" width="10" x="1819" y="687.7734"/><rect fill="#FFFFFF" height="318.8945" style="stroke: #383838; stroke-width: 1.0;" width="10" x="2077" y="438.5781"/><rect fill="#EEEEEE" height="3" style="stroke: #EEEEEE; stroke-width: 1.0;" width="2413" x="3" y="147.8164"/><line style="stroke: #000000; stroke-width: 1.0;" x1="3" x2="2416" y1="147.8164" y2="147.8164"/><line style="stroke: #000000; stroke-width: 1.0;" x1="3" x2="2416" y1="150.8164" y2="150.8164"/><rect fill="#EEEEEE" height="23.1328" style="stroke: #000000; stroke-width: 2.0;" width="367" x="1026" y="137.25"/><text fill="#000000" font-family="sans-serif" font-size="13" font-weight="bold" lengthAdjust="spacingAndGlyphs" textLength="348" x="1032" y="153.3169">A) Alert after expense hits Budget row (signal)</text><polygon fill="#383838" points="1030.5,187.5156,1040.5,191.5156,1030.5,195.5156,1034.5,191.5156" style="stroke: #383838; stroke-width: 1.0;"/><line style="stroke: #383838; stroke-width: 1.0;" x1="814.5" x2="1036.5" y1="191.5156" y2="191.5156"/><text fill="#000000" font-family="sans-serif" font-size="13" lengthAdjust="spacingAndGlyphs" textLength="209" x="821.5" y="186.4497">POST add_transaction (expense)</text><polygon fill="#383838" points="1172.5,216.6484,1182.5,220.6484,1172.5,224.6484,1176.5,220.6484" style="stroke: #383838; stroke-width: 1.0;"/><line style="stroke: #383838; stroke-width: 1.0;" x1="1052.5" x2="1178.5" y1="220.6484" y2="220.6484"/><text fill="#000000" font-family="sans-serif" font-size="13" lengthAdjust="spacingAndGlyphs" textLength="113" x="1059.5" y="215.5825">objects.create(...)</text><polygon fill="#383838" points="1472.5,245.7813,1482.5,249.7813,1472.5,253.7813,1476.5,249.7813" style="stroke: #383838; stroke-width: 1.0;"/><line style="stroke: #383838; stroke-width: 1.0;" x1="1194.5" x2="1478.5" y1="249.7813" y2="249.7813"/><text fill="#000000" font-family="sans-serif" font-size="13" lengthAdjust="spacingAndGlyphs" textLength="65" x="1201.5" y="244.7153">post_save</text><polygon fill="#383838" points="1724.5,274.9141,1734.5,278.9141,1724.5,282.9141,1728.5,278.9141" style="stroke: #383838; stroke-width: 1.0;"/><line style="stroke: #383838; stroke-width: 1.0;" x1="1494.5" x2="1730.5" y1="278.9141" y2="278.9141"/><text fill="#000000" font-family="sans-serif" font-size="13" lengthAdjust="spacingAndGlyphs" textLength="218" x="1501.5" y="273.8481">objects.filter(user, category).first()</text><polygon fill="#383838" points="1205.5,304.0469,1195.5,308.0469,1205.5,312.0469,1201.5,308.0469" style="stroke: #383838; stroke-width: 1.0;"/><line style="stroke: #383838; stroke-width: 1.0;" x1="1199.5" x2="1483.5" y1="308.0469" y2="308.0469"/><text fill="#000000" font-family="sans-serif" font-size="13" lengthAdjust="spacingAndGlyphs" textLength="266" x="1211.5" y="302.981">filter + aggregate spent in budget window</text><polygon fill="#383838" points="1812,333.1797,1822,337.1797,1812,341.1797,1816,337.1797" style="stroke: #383838; stroke-width: 1.0;"/><line style="stroke: #383838; stroke-width: 1.0;" x1="1489.5" x2="1818" y1="337.1797" y2="337.1797"/><text fill="#000000" font-family="sans-serif" font-size="13" lengthAdjust="spacingAndGlyphs" textLength="113" x="1496.5" y="332.1138">objects.create(...)</text><text fill="#000000" font-family="sans-serif" font-size="13" font-weight="bold" lengthAdjust="spacingAndGlyphs" textLength="10" x="1613.5" y="332.1138">if</text><text fill="#000000" font-family="sans-serif" font-size="13" lengthAdjust="spacingAndGlyphs" textLength="126" x="1627.5" y="332.1138">threshold exceeded</text><polygon fill="#383838" points="1058.5,362.3125,1048.5,366.3125,1058.5,370.3125,1054.5,366.3125" style="stroke: #383838; stroke-width: 1.0;"/><line style="stroke: #383838; stroke-width: 1.0; stroke-dasharray: 2.0,2.0;" x1="1052.5" x2="1188.5" y1="366.3125" y2="366.3125"/><text fill="#000000" font-family="sans-serif" font-size="13" lengthAdjust="spacingAndGlyphs" textLength="96" x="1064.5" y="361.2466">saved instance</text><rect fill="#EEEEEE" height="3" style="stroke: #EEEEEE; stroke-width: 1.0;" width="2413" x="3" y="394.8789"/><line style="stroke: #000000; stroke-width: 1.0;" x1="3" x2="2416" y1="394.8789" y2="394.8789"/><line style="stroke: #000000; stroke-width: 1.0;" x1="3" x2="2416" y1="397.8789" y2="397.8789"/><rect fill="#EEEEEE" height="23.1328" style="stroke: #000000; stroke-width: 2.0;" width="481" x="969" y="384.3125"/><text fill="#000000" font-family="sans-serif" font-size="13" font-weight="bold" lengthAdjust="spacingAndGlyphs" textLength="462" x="975" y="400.3794">B) Alert on dashboard load (Category.budgeted ≥ 90% spent)</text><polygon fill="#383838" points="2065,434.5781,2075,438.5781,2065,442.5781,2069,438.5781" style="stroke: #383838; stroke-width: 1.0;"/><line style="stroke: #383838; stroke-width: 1.0;" x1="814.5" x2="2071" y1="438.5781" y2="438.5781"/><text fill="#000000" font-family="sans-serif" font-size="13" lengthAdjust="spacingAndGlyphs" textLength="97" x="821.5" y="433.5122">GET dashboard</text><polygon fill="#383838" points="1200.5,463.7109,1190.5,467.7109,1200.5,471.7109,1196.5,467.7109" style="stroke: #383838; stroke-width: 1.0;"/><line style="stroke: #383838; stroke-width: 1.0;" x1="1194.5" x2="2076" y1="467.7109" y2="467.7109"/><text fill="#000000" font-family="sans-serif" font-size="13" lengthAdjust="spacingAndGlyphs" textLength="289" x="1206.5" y="462.645">objects.filter(user, type=expense/income, …)</text><polygon fill="#383838" points="1200.5,492.8438,1190.5,496.8438,1200.5,500.8438,1196.5,496.8438" style="stroke: #383838; stroke-width: 1.0;"/><line style="stroke: #383838; stroke-width: 1.0;" x1="1194.5" x2="2076" y1="496.8438" y2="496.8438"/><text fill="#000000" font-family="sans-serif" font-size="13" lengthAdjust="spacingAndGlyphs" textLength="188" x="1206.5" y="491.7778">aggregate Sum (charts, KPIs)</text><polygon fill="#383838" points="2361,521.9766,2371,525.9766,2361,529.9766,2365,525.9766" style="stroke: #383838; stroke-width: 1.0;"/><line style="stroke: #383838; stroke-width: 1.0;" x1="2087" x2="2367" y1="525.9766" y2="525.9766"/><text fill="#000000" font-family="sans-serif" font-size="13" lengthAdjust="spacingAndGlyphs" textLength="116" x="2094" y="520.9106">objects.filter(user)</text><path d="M1132,540.9766 L1209,540.9766 L1209,547.9766 L1199,557.9766 L1132,557.9766 L1132,540.9766 " fill="#EEEEEE" style="stroke: #000000; stroke-width: 1.0;"/><rect fill="none" height="46.2656" style="stroke: #000000; stroke-width: 2.0;" width="1016.5" x="1132" y="540.9766"/><text fill="#000000" font-family="sans-serif" font-size="13" font-weight="bold" lengthAdjust="spacingAndGlyphs" textLength="32" x="1147" y="554.0435">loop</text><text fill="#000000" font-family="sans-serif" font-size="11" font-weight="bold" lengthAdjust="spacingAndGlyphs" textLength="101" x="1224" y="553.187">[each category]</text><polygon fill="#383838" points="1200.5,575.2422,1190.5,579.2422,1200.5,583.2422,1196.5,579.2422" style="stroke: #383838; stroke-width: 1.0;"/><line style="stroke: #383838; stroke-width: 1.0;" x1="1194.5" x2="2076" y1="579.2422" y2="579.2422"/><text fill="#000000" font-family="sans-serif" font-size="13" lengthAdjust="spacingAndGlyphs" textLength="416" x="1206.5" y="574.1763">objects.filter(expense, category, current month).aggregate(Sum)</text><line style="stroke: #383838; stroke-width: 1.0;" x1="2087" x2="2129" y1="630.5078" y2="630.5078"/><line style="stroke: #383838; stroke-width: 1.0;" x1="2129" x2="2129" y1="630.5078" y2="643.5078"/><line style="stroke: #383838; stroke-width: 1.0;" x1="2088" x2="2129" y1="643.5078" y2="643.5078"/><polygon fill="#383838" points="2098,639.5078,2088,643.5078,2098,647.5078,2094,643.5078" style="stroke: #383838; stroke-width: 1.0;"/><text fill="#000000" font-family="sans-serif" font-size="13" lengthAdjust="spacingAndGlyphs" textLength="214" x="2094" y="610.3091">_persist_dashboard_notifications(</text><text fill="#000000" font-family="sans-serif" font-size="13" lengthAdjust="spacingAndGlyphs" textLength="267" x="2094" y="625.4419">budget_threshold_alerts, upcoming_rows)</text><polygon fill="#383838" points="1840,683.7734,1830,687.7734,1840,691.7734,1836,687.7734" style="stroke: #383838; stroke-width: 1.0;"/><line style="stroke: #383838; stroke-width: 1.0;" x1="1834" x2="2076" y1="687.7734" y2="687.7734"/><text fill="#000000" font-family="sans-serif" font-size="13" lengthAdjust="spacingAndGlyphs" textLength="229" x="1846" y="667.5747">objects.filter(reference_key).exists()</text><text fill="#000000" font-family="sans-serif" font-size="13" lengthAdjust="spacingAndGlyphs" textLength="56" x="1846" y="682.7075">(if new →</text><text fill="#000000" font-family="sans-serif" font-size="13" font-weight="bold" lengthAdjust="spacingAndGlyphs" textLength="47" x="1906" y="682.7075">create</text><text fill="#000000" font-family="sans-serif" font-size="13" lengthAdjust="spacingAndGlyphs" textLength="5" x="1953" y="682.7075">)</text><polygon fill="#383838" points="825.5,753.4727,815.5,757.4727,825.5,761.4727,821.5,757.4727" style="stroke: #383838; stroke-width: 1.0;"/><line style="stroke: #383838; stroke-width: 1.0; stroke-dasharray: 2.0,2.0;" x1="819.5" x2="2081" y1="757.4727" y2="757.4727"/><text fill="#000000" font-family="sans-serif" font-size="13" lengthAdjust="spacingAndGlyphs" textLength="114" x="831.5" y="752.4067">render dashboard</text><path d="M8,730.7734 L8,770.7734 L810,770.7734 L810,740.7734 L800,730.7734 L8,730.7734 " fill="#ECECEC" style="stroke: #383838; stroke-width: 1.0;"/><path d="M800,730.7734 L800,740.7734 L810,740.7734 L800,730.7734 " fill="#ECECEC" style="stroke: #383838; stroke-width: 1.0;"/><text fill="#000000" font-family="sans-serif" font-size="13" lengthAdjust="spacingAndGlyphs" textLength="63" x="14" y="747.8403">Table lists</text><text fill="#000000" font-family="sans-serif" font-size="13" font-weight="bold" lengthAdjust="spacingAndGlyphs" textLength="137" x="81" y="747.8403">Transaction.create</text><text fill="#000000" font-family="sans-serif" font-size="13" lengthAdjust="spacingAndGlyphs" textLength="4" x="218" y="747.8403">,</text><text fill="#000000" font-family="sans-serif" font-size="13" font-weight="bold" lengthAdjust="spacingAndGlyphs" textLength="94" x="226" y="747.8403">Budget.filter</text><text fill="#000000" font-family="sans-serif" font-size="13" lengthAdjust="spacingAndGlyphs" textLength="4" x="320" y="747.8403">,</text><text fill="#000000" font-family="sans-serif" font-size="13" font-weight="bold" lengthAdjust="spacingAndGlyphs" textLength="137" x="328" y="747.8403">Notification.create</text><text fill="#000000" font-family="sans-serif" font-size="13" lengthAdjust="spacingAndGlyphs" textLength="4" x="465" y="747.8403">,</text><text fill="#000000" font-family="sans-serif" font-size="13" font-weight="bold" lengthAdjust="spacingAndGlyphs" textLength="151" x="473" y="747.8403">getDashboard GET()</text><text fill="#000000" font-family="sans-serif" font-size="13" lengthAdjust="spacingAndGlyphs" textLength="13" x="628" y="747.8403">—</text><text fill="#000000" font-family="sans-serif" font-size="13" lengthAdjust="spacingAndGlyphs" textLength="781" x="14" y="762.9731">(A) covers Tx create + Budget + Notification via signal;\n(B) covers GET dashboard + Tx/Cat queries + Notification persist.</text><!--MD5=[3e00b8abe686f93acba5ac0272f8b6b5]
@startuml seq_05_budget_alert
title (5) Budget Over-Limit / Threshold Alerts — two mechanisms in Spendo
skinparam monochrome true
skinparam shadowing false

actor "Client" as C
participant "add_transaction\n(or any Tx save)" as V
participant "Transaction" as Tx
participant "checkBudgetAmount\n(signal)" as Sig
participant "Budget" as B
participant "Notification" as N
participant "getDashboard" as D
participant "Category" as Cat

== A) Alert after expense hits Budget row (signal) ==
C -> V : POST add_transaction (expense)
activate V
V -> Tx : objects.create(...)
activate Tx
Tx -> Sig : post_save
activate Sig
Sig -> B : objects.filter(user, category).first()
Sig -> Tx : filter + aggregate spent in budget window
Sig -> N : objects.create(...) **if** threshold exceeded
deactivate Sig
Tx - -> V : saved instance
deactivate Tx
deactivate V

== B) Alert on dashboard load (Category.budgeted ≥ 90% spent) ==
C -> D : GET dashboard
activate D
D -> Tx : objects.filter(user, type=expense/income, …)
D -> Tx : aggregate Sum (charts, KPIs)
D -> Cat : objects.filter(user)
loop each category
  D -> Tx : objects.filter(expense, category, current month).aggregate(Sum)
end
D -> D : _persist_dashboard_notifications(\nbudget_threshold_alerts, upcoming_rows)
D -> N : objects.filter(reference_key).exists()\n(if new → **create**)
activate N
deactivate N
D - -> C : render dashboard
deactivate D

note bottom
  Table lists **Transaction.create**, **Budget.filter**, **Notification.create**, **getDashboard GET()** —
  (A) covers Tx create + Budget + Notification via signal;\n(B) covers GET dashboard + Tx/Cat queries + Notification persist.
end note
@enduml

PlantUML version 1.2020.02(Sun Mar 01 10:22:07 UTC 2020)
(GPL source distribution)
Java Runtime: OpenJDK Runtime Environment
JVM: OpenJDK 64-Bit Server VM
Java Version: 17.0.18+8
Operating System: Linux
Default Encoding: UTF-8
Language: en
Country: null
--></g></svg>